# Blender 5.2.0 LTS
# www.blender.org
mtllib black_powder.mtl
o Cylinder
v 0.000000 -0.378810 -0.315675
v 0.000000 0.378810 -0.315675
v 0.273382 -0.378810 -0.157837
v 0.273382 0.378810 -0.157837
v 0.273382 -0.378810 0.157837
v 0.273382 0.378810 0.157837
v 0.000000 -0.378810 0.315675
v 0.000000 0.378810 0.315675
v -0.273382 -0.378810 0.157837
v -0.273382 0.378810 0.157837
v -0.273382 -0.378810 -0.157837
v -0.273382 0.378810 -0.157837
v 0.000000 0.000000 -0.378810
v 0.328059 0.000000 -0.189405
v 0.328059 0.000000 0.189405
v 0.000000 0.000000 0.378810
v -0.328059 0.000000 0.189405
v -0.328059 0.000000 -0.189405
v 0.000000 0.189405 -0.337898
v 0.292628 0.189405 -0.168949
v 0.292628 0.189405 0.168949
v 0.000000 0.189405 0.337898
v -0.292628 0.189405 0.168949
v -0.292628 0.189405 -0.168949
v 0.292628 -0.189405 -0.168949
v 0.292628 -0.189405 0.168949
v 0.000000 -0.189405 0.337898
v -0.292628 -0.189405 0.168949
v -0.292628 -0.189405 -0.168949
v 0.000000 -0.189405 -0.337898
v 0.000000 -0.378810 -0.315675
v 0.273382 -0.378810 -0.157837
v 0.273382 -0.378810 0.157837
v 0.000000 -0.378810 0.315675
v -0.273382 -0.378810 0.157837
v -0.273382 -0.378810 -0.157837
v 0.248027 0.405391 -0.143198
v 0.000000 0.405391 -0.286397
v 0.248027 0.405391 0.143198
v 0.000000 0.405391 0.286397
v -0.248027 0.405391 0.143198
v -0.248027 0.405391 -0.143198
v 0.000000 -0.405391 -0.315675
v 0.273382 -0.405391 -0.157837
v 0.273382 -0.405391 0.157837
v 0.000000 -0.405391 0.315675
v -0.273382 -0.405391 0.157837
v -0.273382 -0.405391 -0.157837
v 0.273382 0.405391 -0.157837
v 0.000000 0.405391 -0.315675
v 0.273382 0.405391 0.157837
v 0.000000 0.405391 0.315675
v -0.273382 0.405391 0.157837
v -0.273382 0.405391 -0.157837
v 0.251867 0.365540 -0.145857
v 0.006055 0.367403 -0.259933
v 0.262833 0.355423 0.158210
v -0.014184 0.359260 0.267807
v -0.264005 0.348998 0.130691
v -0.263800 0.382611 -0.135063
v 0.112027 0.339700 -0.218213
v 0.245354 0.362682 -0.002192
v 0.128808 0.382081 0.220052
v -0.124313 0.359530 0.210204
v -0.240927 0.357819 0.028046
v -0.121953 0.358266 -0.213991
vn 0.4974 0.1011 -0.8616
vn 0.9949 0.1011 -0.0000
vn 0.4974 0.1011 0.8616
vn -0.4974 0.1011 0.8616
vn 1.0000 -0.0000 -0.0000
vn -0.9949 0.1011 -0.0000
vn -0.4974 0.1011 -0.8616
vn -0.0000 1.0000 -0.0000
vn -0.4915 -0.1839 -0.8513
vn -0.9830 -0.1839 -0.0000
vn -0.4915 -0.1839 0.8513
vn 0.4915 -0.1839 0.8513
vn 0.9830 -0.1839 -0.0000
vn 0.4915 -0.1839 -0.8513
vn -0.4915 0.1839 -0.8513
vn -0.9830 0.1839 -0.0000
vn -0.4915 0.1839 0.8513
vn 0.4915 0.1839 0.8513
vn 0.9830 0.1839 -0.0000
vn 0.4915 0.1839 -0.8513
vn 0.4974 -0.1011 -0.8616
vn 0.9949 -0.1011 -0.0000
vn 0.4974 -0.1011 0.8616
vn -0.4974 -0.1011 0.8616
vn -0.9949 -0.1011 -0.0000
vn -0.4974 -0.1011 -0.8616
vn -1.0000 -0.0000 -0.0000
vn 0.4874 0.1006 -0.8674
vn -0.0000 -1.0000 -0.0000
vn -0.5000 -0.0000 0.8660
vn 0.5000 -0.0000 -0.8660
vn -0.5000 -0.0000 -0.8660
vn 0.5000 -0.0000 0.8660
vn 0.0036 0.9999 -0.0101
vn -0.9972 -0.0725 0.0191
vn 0.9934 -0.1144 0.0107
vn -0.4566 -0.0764 -0.8864
vn -0.4496 0.0953 0.8881
vn 0.4449 0.1767 0.8780
vt 1.000000 0.875000
vt 1.000000 1.000000
vt 0.833333 1.000000
vt 0.833333 0.875000
vt 0.666667 1.000000
vt 0.666667 0.875000
vt 0.500000 1.000000
vt 0.500000 0.875000
vt 0.333333 1.000000
vt 0.333333 0.875000
vt 0.833333 0.500000
vt 0.666667 0.500000
vt 0.166667 1.000000
vt 0.166667 0.875000
vt -0.000000 1.000000
vt -0.000000 0.875000
vt 0.166667 0.625000
vt 0.166667 0.750000
vt -0.000000 0.750000
vt -0.000000 0.625000
vt 0.333333 0.625000
vt 0.333333 0.750000
vt 0.500000 0.625000
vt 0.500000 0.750000
vt 0.666667 0.625000
vt 0.666667 0.750000
vt 0.833333 0.625000
vt 0.833333 0.750000
vt 1.000000 0.625000
vt 1.000000 0.750000
vt 1.000000 0.500000
vt 0.500000 0.500000
vt 0.333333 0.500000
vt 0.166667 0.500000
vt -0.000000 0.500000
vt 0.061431 0.141130
vt 0.250000 0.032259
vt 0.155715 0.086694
vt 0.750000 0.490000
vt 0.957846 0.370000
vt 0.957846 0.130000
vt 0.750000 0.010000
vt 0.542154 0.130000
vt 0.542154 0.370000
vt 0.250000 0.467741
vt 0.438569 0.358870
vt 0.457846 0.370000
vt 0.250000 0.490000
vt 0.438569 0.141130
vt 0.457846 0.130000
vt 0.250000 0.010000
vt 0.042154 0.130000
vt 0.061431 0.358870
vt 0.042154 0.370000
vt 0.344285 0.413306
vt 0.155715 0.413306
vt 0.061431 0.250000
vt 0.344285 0.086694
vt 0.438569 0.250000
s 0
usemtl barrel
f 19/1/1 2/2/1 4/3/1 20/4/1
f 20/4/2 4/3/2 6/5/2 21/6/2
f 21/6/3 6/5/3 8/7/3 22/8/3
f 22/8/4 8/7/4 10/9/4 23/10/4
f 23/10/6 10/9/6 12/13/6 24/14/6
f 24/14/7 12/13/7 2/15/7 19/16/7
f 3/11/8 5/12/8 33/12/8 32/11/8
f 29/17/9 18/18/9 13/19/9 30/20/9
f 28/21/10 17/22/10 18/18/10 29/17/10
f 27/23/11 16/24/11 17/22/11 28/21/11
f 26/25/12 15/26/12 16/24/12 27/23/12
f 25/27/13 14/28/13 15/26/13 26/25/13
f 30/29/14 13/30/14 14/28/14 25/27/14
f 18/18/15 24/14/15 19/16/15 13/19/15
f 17/22/16 23/10/16 24/14/16 18/18/16
f 16/24/17 22/8/17 23/10/17 17/22/17
f 15/26/18 21/6/18 22/8/18 16/24/18
f 14/28/19 20/4/19 21/6/19 15/26/19
f 13/30/20 19/1/20 20/4/20 14/28/20
f 1/31/21 30/29/21 25/27/21 3/11/21
f 3/11/22 25/27/22 26/25/22 5/12/22
f 5/12/23 26/25/23 27/23/23 7/32/23
f 7/32/24 27/23/24 28/21/24 9/33/24
f 9/33/25 28/21/25 29/17/25 11/34/25
f 11/34/26 29/17/26 30/20/26 1/35/26
f 9/33/8 11/34/8 36/34/8 35/33/8
f 1/31/8 3/11/8 32/11/8 31/31/8
f 5/12/8 7/32/8 34/32/8 33/12/8
f 11/34/8 1/35/8 31/35/8 36/34/8
f 7/32/8 9/33/8 35/33/8 34/32/8
f 41/36/28 40/37/28 58/37/28 64/38/28 59/36/28
f 43/39/29 44/40/29 45/41/29 46/42/29 47/43/29 48/44/29
f 39/49/35 37/46/35 55/46/35 62/59/35 57/49/35
f 42/53/36 41/36/36 59/36/36 65/57/36 60/53/36
f 40/37/37 39/49/37 57/49/37 63/58/37 58/37/37
f 37/46/38 38/45/38 56/45/38 61/55/38 55/46/38
f 38/45/39 42/53/39 60/53/39 66/56/39 56/45/39
usemtl gunpowder
f 55/46/34 61/55/34 56/45/34 66/56/34 60/53/34 65/57/34 59/36/34 64/38/34 58/37/34 63/58/34 57/49/34 62/59/34
usemtl eyelet
f 32/11/5 33/12/5 45/12/5 44/11/5
f 12/13/27 10/9/27 53/9/27 54/13/27
f 10/9/30 8/7/30 52/7/30 53/9/30
f 4/3/31 2/2/31 50/2/31 49/3/31
f 36/34/32 31/35/32 43/35/32 48/34/32
f 8/7/33 6/5/33 51/5/33 52/7/33
f 33/12/33 34/32/33 46/32/33 45/12/33
f 6/5/5 4/3/5 49/3/5 51/5/5
f 34/32/30 35/33/30 47/33/30 46/32/30
f 31/31/31 32/11/31 44/11/31 43/31/31
f 2/15/32 12/13/32 54/13/32 50/15/32
f 35/33/27 36/34/27 48/34/27 47/33/27
f 38/45/8 37/46/8 49/47/8 50/48/8
f 37/46/8 39/49/8 51/50/8 49/47/8
f 39/49/8 40/37/8 52/51/8 51/50/8
f 40/37/8 41/36/8 53/52/8 52/51/8
f 41/36/8 42/53/8 54/54/8 53/52/8
f 42/53/8 38/45/8 50/48/8 54/54/8
