# Blender 5.2.0 LTS
# www.blender.org
mtllib brass_ingot.mtl
o Cube
v -0.430896 -0.100000 0.230896
v -0.426058 -0.081363 0.245800
v -0.445658 -0.081396 0.226249
v -0.388082 0.081363 0.209133
v -0.274136 0.100000 0.075744
v -0.407668 0.081396 0.189567
v -0.430896 -0.100000 -0.230896
v -0.445658 -0.081396 -0.226249
v -0.426058 -0.081363 -0.245800
v -0.274136 0.100000 -0.075744
v -0.388082 0.081363 -0.209133
v -0.407668 0.081396 -0.189567
v 0.430896 -0.100000 0.230896
v 0.445658 -0.081396 0.226249
v 0.426058 -0.081363 0.245800
v 0.274136 0.100000 0.075744
v 0.388082 0.081363 0.209133
v 0.407668 0.081396 0.189567
v 0.430896 -0.100000 -0.230896
v 0.426058 -0.081363 -0.245800
v 0.445658 -0.081396 -0.226249
v 0.274136 0.100000 -0.075744
v 0.407668 0.081396 -0.189567
v 0.388082 0.081363 -0.209133
v -0.384222 0.100000 0.185829
v -0.384222 0.100000 -0.185829
v 0.384222 0.100000 -0.185829
v 0.384222 0.100000 0.185829
v -0.274136 0.082410 0.075744
v -0.274136 0.082410 -0.075744
v 0.274136 0.082410 -0.075744
v 0.274136 0.082410 0.075744
vn -0.6592 -0.3578 0.6614
vn -0.4912 0.7181 0.4929
vn -0.6592 -0.3578 -0.6614
vn -0.4912 0.7181 -0.4929
vn 0.6592 -0.3578 0.6614
vn 0.4912 0.7181 0.4929
vn 0.6592 -0.3578 -0.6614
vn 0.4912 0.7181 -0.4929
vn -0.7833 -0.6216 -0.0000
vn -0.6720 0.3085 0.6732
vn -0.6216 0.7833 -0.0000
vn -0.6720 0.3085 -0.6732
vn -0.0000 -0.6246 -0.7810
vn -0.0000 0.7810 -0.6246
vn 0.6720 0.3085 -0.6732
vn 0.7833 -0.6216 -0.0000
vn 0.6216 0.7833 -0.0000
vn 0.6720 0.3085 0.6732
vn -0.0000 -0.6246 0.7810
vn -0.0000 0.7810 0.6246
vn -0.0000 -1.0000 -0.0000
vn -0.9738 0.2273 -0.0000
vn -0.0000 0.2198 0.9755
vn -1.0000 -0.0000 -0.0000
vn -0.0000 0.2198 -0.9755
vn 0.9738 0.2273 -0.0000
vn -0.0000 1.0000 -0.0000
vn 1.0000 -0.0000 -0.0000
vn -0.0000 -0.0000 -1.0000
vn -0.0000 -0.0000 1.0000
vt 0.380285 0.009211
vt 0.403467 0.000000
vt 0.398255 0.010184
vt 0.606875 0.000000
vt 0.625000 0.011653
vt 0.601745 0.011188
vt 0.380285 0.240789
vt 0.398255 0.239816
vt 0.400020 0.253716
vt 0.625000 0.244205
vt 0.602997 0.254378
vt 0.601745 0.238812
vt 0.372300 0.744107
vt 0.399502 0.742362
vt 0.390809 0.754181
vt 0.627960 0.747134
vt 0.601704 0.755838
vt 0.602991 0.741609
vt 0.372300 0.505893
vt 0.390809 0.495819
vt 0.399502 0.507638
vt 0.627960 0.502866
vt 0.602991 0.508391
vt 0.601704 0.494162
vt 0.130307 0.509552
vt 0.130307 0.740448
vt 0.125000 0.738124
vt 0.125000 0.511875
vt 0.131651 0.500000
vt 0.131651 0.750000
vt 0.625000 0.994079
vt 0.601704 0.994162
vt 0.398296 0.994425
vt 0.662503 0.674418
vt 0.662503 0.575582
vt 0.834537 0.671564
vt 0.834537 0.578436
vt 0.869079 0.511653
vt 0.869079 0.738347
s 0
usemtl Gold
f 1/1/1 2/2/1 3/3/1
f 4/4/2 25/5/2 6/6/2
f 7/7/3 8/8/3 9/9/3
f 26/10/4 11/11/4 12/12/4
f 13/13/5 14/14/5 15/15/5
f 28/16/6 17/17/6 18/18/6
f 19/19/7 20/20/7 21/21/7
f 27/22/8 23/23/8 24/24/8
f 7/25/9 1/26/9 3/27/9 8/28/9
f 2/2/10 4/4/10 6/6/10 3/3/10
f 25/5/11 26/10/11 12/12/11 6/6/11
f 11/11/12 9/9/12 8/8/12 12/12/12
f 19/19/13 7/25/13 9/29/13 20/20/13
f 26/10/14 27/22/14 24/24/14 11/11/14
f 23/23/15 21/21/15 20/20/15 24/24/15
f 13/13/16 19/19/16 21/21/16 14/14/16
f 27/22/17 28/16/17 18/18/17 23/23/17
f 17/17/18 15/15/18 14/14/18 18/18/18
f 1/26/19 13/13/19 15/15/19 2/30/19
f 28/16/20 25/31/20 4/32/20 17/17/20
f 7/25/21 19/19/21 13/13/21 1/26/21
f 3/3/22 6/6/22 12/12/22 8/8/22
f 15/15/23 17/17/23 4/32/23 2/33/23
f 16/34/24 22/35/24 31/35/24 32/34/24
f 9/9/25 11/11/25 24/24/25 20/20/25
f 21/21/26 23/23/26 18/18/26 14/14/26
f 5/36/27 10/37/27 26/38/27 25/39/27
f 10/37/27 22/35/27 27/22/27 26/38/27
f 22/35/27 16/34/27 28/16/27 27/22/27
f 16/34/27 5/36/27 25/39/27 28/16/27
f 31/35/27 30/37/27 29/36/27 32/34/27
f 10/37/28 5/36/28 29/36/28 30/37/28
f 5/36/29 16/34/29 32/34/29 29/36/29
f 22/35/30 10/37/30 30/37/30 31/35/30
