# Blender 5.2.0 LTS
# www.blender.org
mtllib cast_bomb_shell.mtl
o Sphere
v 0.000000 0.291109 -0.223930
v 0.000000 0.000000 -0.316685
v 0.000000 -0.291109 -0.223930
v 0.000000 -0.411690 0.000000
v 0.071234 0.380352 -0.098045
v 0.131623 0.291109 -0.181163
v 0.171973 0.157547 -0.236701
v 0.186143 0.000000 -0.256203
v 0.171973 -0.157547 -0.236701
v 0.131623 -0.291109 -0.181163
v 0.071234 -0.380352 -0.098045
v 0.115258 0.380352 -0.037450
v 0.212970 0.291109 -0.069198
v 0.278259 0.157547 -0.090412
v 0.301185 0.000000 -0.097861
v 0.278259 -0.157547 -0.090412
v 0.212970 -0.291109 -0.069198
v 0.115258 -0.380352 -0.037450
v 0.115259 0.380352 0.037450
v 0.212970 0.291109 0.069198
v 0.278259 0.157547 0.090412
v 0.301185 0.000000 0.097861
v 0.278259 -0.157547 0.090412
v 0.212970 -0.291109 0.069198
v 0.115259 -0.380352 0.037450
v 0.071234 0.380352 0.098045
v 0.131623 0.291109 0.181163
v 0.171973 0.157547 0.236701
v 0.186143 0.000000 0.256203
v 0.171973 -0.157547 0.236701
v 0.131623 -0.291109 0.181163
v 0.071234 -0.380352 0.098045
v 0.000000 0.380352 0.121190
v 0.000000 0.291109 0.223930
v 0.000000 0.157547 0.292578
v 0.000000 0.000000 0.316685
v 0.000000 -0.157547 0.292578
v 0.000000 -0.291109 0.223930
v 0.000000 -0.380352 0.121190
v -0.071234 0.380352 0.098045
v -0.131623 0.291109 0.181163
v -0.171973 0.157547 0.236701
v -0.186143 0.000000 0.256203
v -0.171973 -0.157547 0.236701
v -0.131623 -0.291109 0.181163
v -0.071234 -0.380352 0.098045
v -0.115259 0.380352 0.037450
v -0.212970 0.291109 0.069198
v -0.278259 0.157547 0.090412
v -0.301185 0.000000 0.097861
v -0.278259 -0.157547 0.090412
v -0.212970 -0.291109 0.069198
v -0.115259 -0.380352 0.037450
v -0.115259 0.380352 -0.037450
v -0.212970 0.291109 -0.069198
v -0.278259 0.157547 -0.090412
v -0.301185 0.000000 -0.097861
v -0.278259 -0.157547 -0.090412
v -0.212970 -0.291109 -0.069198
v -0.115259 -0.380352 -0.037450
v -0.071234 0.380352 -0.098045
v -0.131623 0.291109 -0.181163
v -0.171973 0.157547 -0.236701
v -0.186143 0.000000 -0.256203
v -0.171973 -0.157547 -0.236701
v -0.131623 -0.291109 -0.181163
v -0.071234 -0.380352 -0.098045
v -0.000000 0.380352 -0.121190
v -0.000000 0.157547 -0.292578
v -0.000000 -0.157547 -0.292578
v -0.000000 -0.380352 -0.121190
v 0.087063 0.423790 -0.028288
v 0.053808 0.423790 -0.074060
v 0.087063 0.423790 0.028288
v 0.053808 0.423790 0.074060
v 0.000000 0.423790 0.091543
v -0.053808 0.423790 0.074060
v -0.087063 0.423790 0.028288
v -0.087063 0.423790 -0.028288
v -0.053808 0.423790 -0.074060
v -0.000000 0.423790 -0.091543
v 0.115258 0.418388 -0.037450
v 0.071234 0.418388 -0.098045
v 0.115259 0.418388 0.037450
v 0.071234 0.418388 0.098045
v 0.000000 0.418388 0.121190
v -0.071234 0.418388 0.098045
v -0.115259 0.418388 0.037450
v -0.115259 0.418388 -0.037450
v -0.071234 0.418388 -0.098045
v -0.000000 0.418388 -0.121190
v 0.087063 0.398297 -0.028288
v 0.053808 0.398297 -0.074060
v 0.087063 0.398297 0.028288
v 0.053808 0.398297 0.074060
v 0.000000 0.398297 0.091543
v -0.053808 0.398297 0.074060
v -0.087063 0.398297 0.028288
v -0.087063 0.398297 -0.028288
v -0.053808 0.398297 -0.074060
v -0.000000 0.398297 -0.091543
v -0.000000 0.412868 0.000000
vn 0.3058 0.1440 -0.9411
vn 0.2084 0.7384 -0.6414
vn 0.2084 -0.7384 -0.6414
vn 0.3058 -0.1440 -0.9411
vn 0.2776 0.4392 -0.8544
vn 0.8090 -0.0000 -0.5878
vn 0.0811 -0.9650 -0.2495
vn 0.2776 -0.4392 -0.8544
vn 0.5456 -0.7384 -0.3964
vn 0.8006 -0.1440 -0.5817
vn 0.7268 0.4392 -0.5281
vn -0.8090 -0.0000 -0.5878
vn 0.2123 -0.9650 -0.1542
vn 0.7268 -0.4392 -0.5281
vn 0.8006 0.1440 -0.5817
vn 0.5456 0.7384 -0.3964
vn -0.3090 -0.0000 0.9511
vn 0.2624 -0.9650 -0.0000
vn 0.8984 -0.4392 -0.0000
vn 0.9896 0.1440 -0.0000
vn 0.6744 0.7384 -0.0000
vn 0.6744 -0.7384 -0.0000
vn 0.9896 -0.1440 -0.0000
vn 0.8984 0.4392 -0.0000
vn 0.7268 -0.4392 0.5281
vn 0.8006 0.1440 0.5817
vn 0.5456 0.7384 0.3964
vn 0.5456 -0.7384 0.3964
vn 0.8006 -0.1440 0.5817
vn 0.7268 0.4392 0.5281
vn 0.3090 -0.0000 0.9511
vn 0.2123 -0.9650 0.1542
vn 0.2084 -0.7384 0.6414
vn 0.3058 -0.1440 0.9411
vn 0.2776 0.4392 0.8544
vn 0.3090 -0.0000 -0.9511
vn 0.0811 -0.9650 0.2495
vn 0.2776 -0.4392 0.8544
vn 0.3058 0.1440 0.9411
vn 0.2084 0.7384 0.6414
vn -0.3058 -0.1440 0.9411
vn -0.2776 0.4392 0.8544
vn -0.3090 -0.0000 -0.9511
vn -0.0811 -0.9650 0.2495
vn -0.2776 -0.4392 0.8544
vn -0.3058 0.1440 0.9411
vn -0.2084 0.7384 0.6414
vn -0.2084 -0.7384 0.6414
vn -0.2123 -0.9650 0.1542
vn -0.7268 -0.4392 0.5281
vn -0.8006 0.1440 0.5817
vn -0.5456 0.7384 0.3964
vn -0.5456 -0.7384 0.3964
vn -0.8006 -0.1440 0.5817
vn -0.7268 0.4392 0.5281
vn 0.8090 -0.0000 0.5878
vn -0.9896 0.1440 -0.0000
vn -0.6744 0.7384 -0.0000
vn -0.6744 -0.7384 -0.0000
vn -0.9896 -0.1440 -0.0000
vn -0.8984 0.4392 -0.0000
vn -0.8090 -0.0000 0.5878
vn -0.2624 -0.9650 -0.0000
vn -0.8984 -0.4392 -0.0000
vn -0.5456 -0.7384 -0.3964
vn -0.8006 -0.1440 -0.5817
vn -0.7268 0.4392 -0.5281
vn -1.0000 -0.0000 -0.0000
vn -0.2123 -0.9650 -0.1542
vn -0.7268 -0.4392 -0.5281
vn -0.8006 0.1440 -0.5817
vn -0.5456 0.7384 -0.3964
vn -0.2776 0.4392 -0.8544
vn 1.0000 -0.0000 -0.0000
vn -0.0811 -0.9650 -0.2495
vn -0.2776 -0.4392 -0.8544
vn -0.3058 0.1440 -0.9411
vn -0.2084 0.7384 -0.6414
vn -0.2084 -0.7384 -0.6414
vn -0.3058 -0.1440 -0.9411
vn 0.1522 0.9821 -0.1106
vn 0.1882 0.9821 -0.0000
vn 0.1522 0.9821 0.1106
vn 0.0581 0.9821 0.1790
vn -0.0581 0.9821 0.1790
vn -0.1522 0.9821 0.1106
vn -0.1882 0.9821 -0.0000
vn -0.1522 0.9821 -0.1106
vn -0.0581 0.9821 -0.1790
vn 0.0581 0.9821 -0.1790
vn 0.0510 0.9863 -0.1570
vn 0.1335 0.9863 -0.0970
vn 0.1651 0.9863 -0.0000
vn 0.1335 0.9863 0.0970
vn 0.0510 0.9863 0.1570
vn -0.0510 0.9863 0.1570
vn -0.1335 0.9863 0.0970
vn -0.1651 0.9863 -0.0000
vn -0.1335 0.9863 -0.0970
vn -0.0510 0.9863 -0.1570
vt 0.700000 0.500000
vt 0.700000 0.625000
vt 0.600000 0.625000
vt 0.600000 0.500000
vt 0.700000 0.750000
vt 0.700000 0.875000
vt 0.600000 0.875000
vt 0.600000 0.750000
vt 0.700000 0.125000
vt 0.700000 0.250000
vt 0.600000 0.250000
vt 0.600000 0.125000
vt 0.700000 0.375000
vt 0.600000 0.375000
vt 0.500000 0.875000
vt 0.650000 0.000000
vt 0.500000 0.250000
vt 0.500000 0.125000
vt 0.500000 0.500000
vt 0.500000 0.375000
vt 0.500000 0.750000
vt 0.500000 0.625000
vt 0.800000 0.875000
vt 0.900000 0.875000
vt 0.550000 0.000000
vt 0.100000 0.875000
vt 0.200000 0.875000
vt 0.450000 0.000000
vt 0.400000 0.125000
vt 0.400000 0.375000
vt 0.400000 0.250000
vt 0.400000 0.625000
vt 0.400000 0.500000
vt 0.400000 0.875000
vt 0.400000 0.750000
vt 0.300000 0.375000
vt 0.300000 0.250000
vt 0.300000 0.625000
vt 0.300000 0.500000
vt 0.300000 0.875000
vt 0.300000 0.750000
vt 0.300000 0.125000
vt 0.350000 0.000000
vt 0.200000 0.250000
vt 0.200000 0.125000
vt 0.200000 0.500000
vt 0.200000 0.375000
vt 0.200000 0.750000
vt 0.200000 0.625000
vt 0.250000 0.000000
vt 0.100000 0.500000
vt 0.100000 0.375000
vt 0.100000 0.750000
vt 0.100000 0.625000
vt 0.150000 0.000000
vt 0.100000 0.125000
vt 0.100000 0.250000
vt 0.050000 0.000000
vt 0.000000 0.125000
vt 0.000000 0.375000
vt 0.000000 0.250000
vt 0.000000 0.625000
vt 0.000000 0.500000
vt 0.000000 0.875000
vt 0.000000 0.750000
vt 1.000000 0.500000
vt 1.000000 0.625000
vt 0.900000 0.625000
vt 0.900000 0.500000
vt 1.000000 0.750000
vt 1.000000 0.875000
vt 0.900000 0.750000
vt 1.000000 0.125000
vt 1.000000 0.250000
vt 0.900000 0.250000
vt 0.900000 0.125000
vt 1.000000 0.375000
vt 0.900000 0.375000
vt 0.950000 0.000000
vt 0.800000 0.250000
vt 0.800000 0.125000
vt 0.800000 0.500000
vt 0.800000 0.375000
vt 0.800000 0.750000
vt 0.800000 0.625000
vt 0.850000 0.000000
vt 0.750000 0.000000
vt 0.787768 0.905635
vt 0.887769 0.905635
vt 0.487768 0.905635
vt 0.612232 0.905635
vt 0.187768 0.905635
vt 0.287768 0.905635
vt 0.987768 0.905635
vt 0.687768 0.905635
vt 0.387768 0.905635
vt 0.012232 0.905635
vt 0.087768 0.905635
vt 0.650000 1.000000
vt 0.550000 1.000000
vt 0.450000 1.000000
vt 0.350000 1.000000
vt 0.250000 1.000000
vt 0.150000 1.000000
vt 0.050000 1.000000
vt 0.950000 1.000000
vt 0.850000 1.000000
vt 0.750000 1.000000
s 0
usemtl Brass
f 2/1/1 69/2/1 7/3/1 8/4/1
f 1/5/2 68/6/2 5/7/2 6/8/2
f 71/9/3 3/10/3 10/11/3 11/12/3
f 70/13/4 2/1/4 8/4/4 9/14/4
f 69/2/5 1/5/5 6/8/5 7/3/5
f 12/15/6 5/7/6 83/7/6 82/15/6
f 4/16/7 71/9/7 11/12/7
f 3/10/8 70/13/8 9/14/8 10/11/8
f 11/12/9 10/11/9 17/17/9 18/18/9
f 9/14/10 8/4/10 15/19/10 16/20/10
f 7/3/11 6/8/11 13/21/11 14/22/11
f 61/23/12 54/24/12 89/24/12 90/23/12
f 4/25/13 11/12/13 18/18/13
f 10/11/14 9/14/14 16/20/14 17/17/14
f 8/4/15 7/3/15 14/22/15 15/19/15
f 6/8/16 5/7/16 12/15/16 13/21/16
f 40/26/17 33/27/17 86/27/17 87/26/17
f 4/28/18 18/18/18 25/29/18
f 17/17/19 16/20/19 23/30/19 24/31/19
f 15/19/20 14/22/20 21/32/20 22/33/20
f 13/21/21 12/15/21 19/34/21 20/35/21
f 18/18/22 17/17/22 24/31/22 25/29/22
f 16/20/23 15/19/23 22/33/23 23/30/23
f 14/22/24 13/21/24 20/35/24 21/32/24
f 24/31/25 23/30/25 30/36/25 31/37/25
f 22/33/26 21/32/26 28/38/26 29/39/26
f 20/35/27 19/34/27 26/40/27 27/41/27
f 25/29/28 24/31/28 31/37/28 32/42/28
f 23/30/29 22/33/29 29/39/29 30/36/29
f 21/32/30 20/35/30 27/41/30 28/38/30
f 33/27/31 26/40/31 85/40/31 86/27/31
f 4/43/32 25/29/32 32/42/32
f 32/42/33 31/37/33 38/44/33 39/45/33
f 30/36/34 29/39/34 36/46/34 37/47/34
f 28/38/35 27/41/35 34/48/35 35/49/35
f 5/7/36 68/6/36 91/6/36 83/7/36
f 4/50/37 32/42/37 39/45/37
f 31/37/38 30/36/38 37/47/38 38/44/38
f 29/39/39 28/38/39 35/49/39 36/46/39
f 27/41/40 26/40/40 33/27/40 34/48/40
f 37/47/41 36/46/41 43/51/41 44/52/41
f 35/49/42 34/48/42 41/53/42 42/54/42
f 68/6/43 61/23/43 90/23/43 91/6/43
f 4/55/44 39/45/44 46/56/44
f 38/44/45 37/47/45 44/52/45 45/57/45
f 36/46/46 35/49/46 42/54/46 43/51/46
f 34/48/47 33/27/47 40/26/47 41/53/47
f 39/45/48 38/44/48 45/57/48 46/56/48
f 4/58/49 46/56/49 53/59/49
f 45/57/50 44/52/50 51/60/50 52/61/50
f 43/51/51 42/54/51 49/62/51 50/63/51
f 41/53/52 40/26/52 47/64/52 48/65/52
f 46/56/53 45/57/53 52/61/53 53/59/53
f 44/52/54 43/51/54 50/63/54 51/60/54
f 42/54/55 41/53/55 48/65/55 49/62/55
f 26/40/56 19/34/56 84/34/56 85/40/56
f 50/66/57 49/67/57 56/68/57 57/69/57
f 48/70/58 47/71/58 54/24/58 55/72/58
f 53/73/59 52/74/59 59/75/59 60/76/59
f 51/77/60 50/66/60 57/69/60 58/78/60
f 49/67/61 48/70/61 55/72/61 56/68/61
f 47/64/62 40/26/62 87/26/62 88/64/62
f 4/79/63 53/73/63 60/76/63
f 52/74/64 51/77/64 58/78/64 59/75/64
f 60/76/65 59/75/65 66/80/65 67/81/65
f 58/78/66 57/69/66 64/82/66 65/83/66
f 56/68/67 55/72/67 62/84/67 63/85/67
f 54/24/68 47/71/68 88/71/68 89/24/68
f 4/86/69 60/76/69 67/81/69
f 59/75/70 58/78/70 65/83/70 66/80/70
f 57/69/71 56/68/71 63/85/71 64/82/71
f 55/72/72 54/24/72 61/23/72 62/84/72
f 63/85/73 62/84/73 1/5/73 69/2/73
f 19/34/74 12/15/74 82/15/74 84/34/74
f 4/87/75 67/81/75 71/9/75
f 66/80/76 65/83/76 70/13/76 3/10/76
f 64/82/77 63/85/77 69/2/77 2/1/77
f 62/84/78 61/23/78 68/6/78 1/5/78
f 67/81/79 66/80/79 3/10/79 71/9/79
f 65/83/80 64/82/80 2/1/80 70/13/80
f 80/88/56 79/89/56 99/89/56 100/88/56
f 72/90/62 73/91/62 93/91/62 92/90/62
f 76/92/43 75/93/43 95/93/43 96/92/43
f 79/89/74 78/94/74 98/94/74 99/89/74
f 73/91/17 81/95/17 101/95/17 93/91/17
f 75/93/12 74/96/12 94/96/12 95/93/12
f 78/97/6 77/98/6 97/98/6 98/97/6
f 81/95/31 80/88/31 100/88/31 101/95/31
f 74/96/68 72/90/68 92/90/68 94/96/68
f 77/98/36 76/92/36 96/92/36 97/98/36
f 73/91/81 72/90/81 82/15/81 83/7/81
f 72/90/82 74/96/82 84/34/82 82/15/82
f 74/96/83 75/93/83 85/40/83 84/34/83
f 75/93/84 76/92/84 86/27/84 85/40/84
f 76/92/85 77/98/85 87/26/85 86/27/85
f 77/98/86 78/97/86 88/64/86 87/26/86
f 78/94/87 79/89/87 89/24/87 88/71/87
f 79/89/88 80/88/88 90/23/88 89/24/88
f 80/88/89 81/95/89 91/6/89 90/23/89
f 81/95/90 73/91/90 83/7/90 91/6/90
usemtl gunpowder
f 101/95/91 102/99/91 93/91/91
f 93/91/92 102/100/92 92/90/92
f 92/90/93 102/101/93 94/96/93
f 94/96/94 102/102/94 95/93/94
f 95/93/95 102/103/95 96/92/95
f 96/92/96 102/104/96 97/98/96
f 97/98/97 102/105/97 98/97/97
f 98/94/98 102/106/98 99/89/98
f 99/89/99 102/107/99 100/88/99
f 100/88/100 102/108/100 101/95/100
