# Blender 5.2.0 LTS
# www.blender.org
mtllib clockwork_mechanism.mtl
o Cylinder
v -0.053993 0.167305 -0.039916
v -0.053993 0.208790 -0.039916
v -0.019634 0.167305 -0.030710
v -0.019634 0.208790 -0.030710
v 0.005518 0.167305 -0.005557
v 0.005518 0.208790 -0.005557
v 0.014725 0.167305 0.028801
v 0.014725 0.208790 0.028801
v 0.005518 0.167305 0.063160
v 0.005518 0.208790 0.063160
v -0.019634 0.167305 0.088313
v -0.019634 0.208790 0.088313
v -0.053993 0.167305 0.097519
v -0.053993 0.208790 0.097519
v -0.088352 0.167305 0.088313
v -0.088352 0.208790 0.088313
v -0.113504 0.167305 0.063160
v -0.113504 0.208790 0.063160
v -0.122711 0.167305 0.028801
v -0.122711 0.208790 0.028801
v -0.113504 0.167305 -0.005557
v -0.113504 0.208790 -0.005557
v -0.088352 0.167305 -0.030710
v -0.088352 0.208790 -0.030710
v -0.037224 0.176043 -0.219697
v -0.037224 0.200051 -0.219697
v 0.055734 0.200051 -0.194789
v 0.055734 0.176043 -0.194789
v 0.169597 0.176043 -0.080925
v 0.169597 0.200051 -0.080925
v 0.194505 0.200051 0.012033
v 0.194505 0.176043 0.012033
v 0.152828 0.176043 0.167573
v 0.152828 0.200051 0.167573
v 0.084778 0.200051 0.235623
v 0.084778 0.176043 0.235623
v -0.070762 0.176043 0.277300
v -0.070762 0.200051 0.277300
v -0.163720 0.200051 0.252392
v -0.163720 0.176043 0.252392
v -0.277583 0.176043 0.138528
v -0.277583 0.200051 0.138528
v -0.302491 0.200051 0.045570
v -0.302491 0.176043 0.045570
v -0.260814 0.176043 -0.109970
v -0.260814 0.200051 -0.109970
v -0.192764 0.200051 -0.178020
v -0.192764 0.176043 -0.178020
v -0.053993 0.167305 -0.157114
v 0.038965 0.167305 -0.132206
v 0.038965 0.208790 -0.132206
v -0.053993 0.208790 -0.157114
v 0.107015 0.167305 -0.064156
v 0.107015 0.208790 -0.064156
v 0.131923 0.167305 0.028801
v 0.131923 0.208790 0.028801
v 0.107015 0.167305 0.121759
v 0.107015 0.208790 0.121759
v 0.038965 0.167305 0.189809
v 0.038965 0.208790 0.189809
v -0.053993 0.167305 0.214717
v -0.053993 0.208790 0.214717
v -0.146951 0.167305 0.189809
v -0.146951 0.208790 0.189809
v -0.215001 0.167305 0.121759
v -0.215001 0.208790 0.121759
v -0.239909 0.167305 0.028801
v -0.239909 0.208790 0.028801
v -0.215001 0.167305 -0.064156
v -0.215001 0.208790 -0.064156
v -0.146951 0.167305 -0.132206
v -0.146951 0.208790 -0.132206
v -0.037224 0.176043 -0.219697
v -0.037224 0.200051 -0.219697
v 0.055734 0.200051 -0.194789
v 0.055734 0.176043 -0.194789
v 0.169597 0.176043 -0.080925
v 0.169597 0.200051 -0.080925
v 0.194505 0.200051 0.012033
v 0.194505 0.176043 0.012033
v 0.152828 0.176043 0.167573
v 0.152828 0.200051 0.167573
v 0.084778 0.200051 0.235623
v 0.084778 0.176043 0.235623
v -0.070762 0.176043 0.277300
v -0.070762 0.200051 0.277300
v -0.163720 0.200051 0.252392
v -0.163720 0.176043 0.252392
v -0.277583 0.176043 0.138528
v -0.277583 0.200051 0.138528
v -0.302491 0.200051 0.045570
v -0.302491 0.176043 0.045570
v -0.260814 0.176043 -0.109970
v -0.260814 0.200051 -0.109970
v -0.192764 0.200051 -0.178020
v -0.192764 0.176043 -0.178020
vn 0.7071 -0.0000 -0.7071
vn 0.9659 -0.0000 0.2588
vn 0.2588 -0.0000 0.9659
vn -0.7071 -0.0000 0.7071
vn -0.9659 -0.0000 -0.2588
vn -0.2588 -0.0000 -0.9659
vn 0.0346 0.9910 -0.1291
vn 0.0346 -0.9910 -0.1291
vn 0.1291 0.9910 -0.0346
vn 0.1291 -0.9910 -0.0346
vn 0.0945 0.9910 0.0945
vn 0.0945 -0.9910 0.0945
vn -0.0346 0.9910 0.1291
vn -0.0346 -0.9910 0.1291
vn -0.1291 0.9910 0.0346
vn -0.1291 -0.9910 0.0346
vn -0.0945 0.9910 -0.0945
vn -0.0945 -0.9910 -0.0945
vn -0.0000 -1.0000 -0.0000
vn -0.0000 1.0000 -0.0000
vn 0.7071 -0.0000 0.7071
vn 0.9659 -0.0000 -0.2588
vn 0.2588 -0.0000 -0.9659
vn -0.7071 -0.0000 -0.7071
vn -0.9659 -0.0000 0.2588
vn -0.2588 -0.0000 0.9659
vt 0.916667 0.500000
vt 0.916667 1.000000
vt 0.833333 1.000000
vt 0.833333 0.500000
vt 0.750000 0.500000
vt 0.750000 1.000000
vt 0.666667 1.000000
vt 0.666667 0.500000
vt 0.583333 0.500000
vt 0.583333 1.000000
vt 0.500000 1.000000
vt 0.500000 0.500000
vt 0.416667 0.500000
vt 0.416667 1.000000
vt 0.333333 1.000000
vt 0.333333 0.500000
vt 0.250000 0.500000
vt 0.250000 1.000000
vt 0.166667 1.000000
vt 0.166667 0.500000
vt 0.083333 0.500000
vt 0.083333 1.000000
vt 0.000000 1.000000
vt 0.000000 0.500000
vt 1.000000 1.000000
vt 1.000000 0.500000
vt 0.794354 0.326823
vt 0.750000 0.338708
vt 0.750000 0.490000
vt 0.870000 0.457846
vt 0.250000 0.338708
vt 0.294354 0.326823
vt 0.370000 0.457846
vt 0.250000 0.490000
vt 0.826823 0.294354
vt 0.957846 0.370000
vt 0.326823 0.294354
vt 0.457846 0.370000
vt 0.838708 0.250000
vt 0.990000 0.250000
vt 0.338708 0.250000
vt 0.490000 0.250000
vt 0.826823 0.205646
vt 0.957846 0.130000
vt 0.326823 0.205646
vt 0.457846 0.130000
vt 0.794354 0.173177
vt 0.870000 0.042154
vt 0.294354 0.173177
vt 0.370000 0.042154
vt 0.750000 0.161292
vt 0.750000 0.010000
vt 0.250000 0.161292
vt 0.250000 0.010000
vt 0.705646 0.173177
vt 0.630000 0.042154
vt 0.205646 0.173177
vt 0.130000 0.042154
vt 0.673177 0.205646
vt 0.542154 0.130000
vt 0.173177 0.205646
vt 0.042154 0.130000
vt 0.661292 0.250000
vt 0.510000 0.250000
vt 0.161292 0.250000
vt 0.010000 0.250000
vt 0.673177 0.294354
vt 0.542154 0.370000
vt 0.173177 0.294354
vt 0.042154 0.370000
vt 0.705646 0.326823
vt 0.630000 0.457846
vt 0.205646 0.326823
vt 0.130000 0.457846
s 0
usemtl Brass
f 50/1/1 51/2/1 54/3/1 53/4/1
f 55/5/2 56/6/2 58/7/2 57/8/2
f 59/9/3 60/10/3 62/11/3 61/12/3
f 63/13/4 64/14/4 66/15/4 65/16/4
f 67/17/5 68/18/5 70/19/5 69/20/5
f 71/21/6 72/22/6 52/23/6 49/24/6
f 52/25/5 26/25/5 25/26/5 49/26/5
f 51/2/7 27/2/7 26/25/7 52/25/7
f 50/1/2 28/1/2 27/2/2 51/2/2
f 49/26/8 25/26/8 28/1/8 50/1/8
f 54/3/6 30/3/6 29/4/6 53/4/6
f 56/6/9 31/6/9 30/3/9 54/3/9
f 55/5/3 32/5/3 31/6/3 56/6/3
f 53/4/10 29/4/10 32/5/10 55/5/10
f 58/7/1 34/7/1 33/8/1 57/8/1
f 60/10/11 35/10/11 34/7/11 58/7/11
f 59/9/4 36/9/4 35/10/4 60/10/4
f 57/8/12 33/8/12 36/9/12 59/9/12
f 62/11/2 38/11/2 37/12/2 61/12/2
f 64/14/13 39/14/13 38/11/13 62/11/13
f 63/13/5 40/13/5 39/14/5 64/14/5
f 61/12/14 37/12/14 40/13/14 63/13/14
f 66/15/3 42/15/3 41/16/3 65/16/3
f 68/18/15 43/18/15 42/15/15 66/15/15
f 67/17/6 44/17/6 43/18/6 68/18/6
f 65/16/16 41/16/16 44/17/16 67/17/16
f 70/19/4 46/19/4 45/20/4 69/20/4
f 72/22/17 47/22/17 46/19/17 70/19/17
f 71/21/1 48/21/1 47/22/1 72/22/1
f 69/20/18 45/20/18 48/21/18 71/21/18
f 3/27/19 1/28/19 49/29/19 50/30/19
f 2/31/20 4/32/20 51/33/20 52/34/20
f 5/35/19 3/27/19 50/30/19 53/36/19
f 4/32/20 6/37/20 54/38/20 51/33/20
f 7/39/19 5/35/19 53/36/19 55/40/19
f 6/37/20 8/41/20 56/42/20 54/38/20
f 9/43/19 7/39/19 55/40/19 57/44/19
f 8/41/20 10/45/20 58/46/20 56/42/20
f 11/47/19 9/43/19 57/44/19 59/48/19
f 10/45/20 12/49/20 60/50/20 58/46/20
f 13/51/19 11/47/19 59/48/19 61/52/19
f 12/49/20 14/53/20 62/54/20 60/50/20
f 15/55/19 13/51/19 61/52/19 63/56/19
f 14/53/20 16/57/20 64/58/20 62/54/20
f 17/59/19 15/55/19 63/56/19 65/60/19
f 16/57/20 18/61/20 66/62/20 64/58/20
f 19/63/19 17/59/19 65/60/19 67/64/19
f 18/61/20 20/65/20 68/66/20 66/62/20
f 21/67/19 19/63/19 67/64/19 69/68/19
f 20/65/20 22/69/20 70/70/20 68/66/20
f 23/71/19 21/67/19 69/68/19 71/72/19
f 22/69/20 24/73/20 72/74/20 70/70/20
f 1/28/19 23/71/19 71/72/19 49/29/19
f 24/73/20 2/31/20 52/34/20 72/74/20
f 2/31/3 24/73/3 23/71/3 1/28/3
f 24/73/21 22/69/21 21/67/21 23/71/21
f 22/69/2 20/65/2 19/63/2 21/67/2
f 20/65/22 18/61/22 17/59/22 19/63/22
f 18/61/1 16/57/1 15/55/1 17/59/1
f 16/57/23 14/53/23 13/51/23 15/55/23
f 14/53/6 12/49/6 11/47/6 13/51/6
f 12/49/24 10/45/24 9/43/24 11/47/24
f 10/45/5 8/41/5 7/39/5 9/43/5
f 8/41/25 6/37/25 5/35/25 7/39/25
f 6/37/4 4/32/4 3/27/4 5/35/4
f 4/32/26 2/31/26 1/28/26 3/27/26
f 73/26/23 74/25/23 75/2/23 76/1/23
f 77/4/22 78/3/22 79/6/22 80/5/22
f 81/8/21 82/7/21 83/10/21 84/9/21
f 85/12/26 86/11/26 87/14/26 88/13/26
f 89/16/25 90/15/25 91/18/25 92/17/25
f 93/20/24 94/19/24 95/22/24 96/21/24
o Cylinder.001
v -0.053993 0.086558 -0.029939
v -0.053993 0.289537 -0.029939
v -0.012457 0.086558 -0.012734
v -0.012457 0.289537 -0.012734
v 0.004748 0.086558 0.028801
v 0.004748 0.289537 0.028801
v -0.012457 0.086558 0.070337
v -0.012457 0.289537 0.070337
v -0.053993 0.086558 0.087542
v -0.053993 0.289537 0.087542
v -0.095529 0.086558 0.070337
v -0.095529 0.289537 0.070337
v -0.112734 0.086558 0.028801
v -0.112734 0.289537 0.028801
v -0.095529 0.086558 -0.012734
v -0.095529 0.289537 -0.012734
vn 0.3827 -0.0000 -0.9239
vn 0.9239 -0.0000 -0.3827
vn 0.9239 -0.0000 0.3827
vn 0.3827 -0.0000 0.9239
vn -0.3827 -0.0000 0.9239
vn -0.9239 -0.0000 0.3827
vn -0.0000 1.0000 -0.0000
vn -0.9239 -0.0000 -0.3827
vn -0.3827 -0.0000 -0.9239
vn -0.0000 -1.0000 -0.0000
vt 1.000000 0.500000
vt 1.000000 1.000000
vt 0.875000 1.000000
vt 0.875000 0.500000
vt 0.750000 1.000000
vt 0.750000 0.500000
vt 0.625000 1.000000
vt 0.625000 0.500000
vt 0.500000 1.000000
vt 0.500000 0.500000
vt 0.375000 1.000000
vt 0.375000 0.500000
vt 0.250000 1.000000
vt 0.250000 0.500000
vt 0.419706 0.419706
vt 0.250000 0.490000
vt 0.080294 0.419706
vt 0.010000 0.250000
vt 0.080294 0.080294
vt 0.250000 0.010000
vt 0.419706 0.080294
vt 0.490000 0.250000
vt 0.125000 1.000000
vt 0.125000 0.500000
vt 0.000000 1.000000
vt 0.000000 0.500000
vt 0.750000 0.490000
vt 0.919706 0.419706
vt 0.990000 0.250000
vt 0.919706 0.080294
vt 0.750000 0.010000
vt 0.580294 0.080294
vt 0.510000 0.250000
vt 0.580294 0.419706
s 0
usemtl steel
f 97/75/27 98/76/27 100/77/27 99/78/27
f 99/78/28 100/77/28 102/79/28 101/80/28
f 101/80/29 102/79/29 104/81/29 103/82/29
f 103/82/30 104/81/30 106/83/30 105/84/30
f 105/84/31 106/83/31 108/85/31 107/86/31
f 107/86/32 108/85/32 110/87/32 109/88/32
f 100/89/33 98/90/33 112/91/33 110/92/33 108/93/33 106/94/33 104/95/33 102/96/33
f 109/88/34 110/87/34 112/97/34 111/98/34
f 111/98/35 112/97/35 98/99/35 97/100/35
f 97/101/36 99/102/36 101/103/36 103/104/36 105/105/36 107/106/36 109/107/36 111/108/36
o Cube
v -0.229276 0.068090 0.524116
v -0.229276 0.072407 0.542099
v -0.247259 0.072407 0.524116
v -0.229276 0.080720 0.542099
v -0.229276 0.085037 0.524116
v -0.247259 0.080720 0.524116
v -0.229276 0.068090 -0.270049
v -0.247259 0.072407 -0.270049
v -0.229276 0.072407 -0.288032
v -0.229276 0.085037 -0.270049
v -0.229276 0.080720 -0.288032
v -0.247259 0.080720 -0.270049
v 0.564890 0.068090 0.524116
v 0.582873 0.072407 0.524116
v 0.564890 0.072407 0.542099
v 0.564890 0.085037 0.524116
v 0.564890 0.080720 0.542099
v 0.582873 0.080720 0.524116
v 0.564890 0.068090 -0.270049
v 0.564890 0.072407 -0.288032
v 0.582873 0.072407 -0.270049
v 0.564890 0.085037 -0.270049
v 0.582873 0.080720 -0.270049
v 0.564890 0.080720 -0.288032
vn -0.2273 -0.9469 0.2273
vn -0.2273 0.9469 0.2273
vn -0.2273 -0.9469 -0.2273
vn -0.2273 0.9469 -0.2273
vn 0.2273 -0.9469 0.2273
vn 0.2273 0.9469 0.2273
vn 0.2273 -0.9469 -0.2273
vn 0.2273 0.9469 -0.2273
vn -0.2334 -0.9724 -0.0000
vn -0.7071 -0.0000 0.7071
vn -0.2334 0.9724 -0.0000
vn -0.7071 -0.0000 -0.7071
vn -0.0000 -0.9724 -0.2334
vn -0.0000 0.9724 -0.2334
vn 0.7071 -0.0000 -0.7071
vn 0.2334 -0.9724 -0.0000
vn 0.2334 0.9724 -0.0000
vn 0.7071 -0.0000 0.7071
vn -0.0000 -0.9724 0.2334
vn -0.0000 0.9724 0.2334
vn -0.0000 -1.0000 -0.0000
vn -1.0000 -0.0000 -0.0000
vn -0.0000 -0.0000 1.0000
vn -0.0000 1.0000 -0.0000
vn -0.0000 -0.0000 -1.0000
vn 1.0000 -0.0000 -0.0000
vt 0.375000 0.994584
vt 0.438682 0.994584
vt 0.438682 1.000000
vt 0.561318 0.994584
vt 0.625000 0.994584
vt 0.561318 1.000000
vt 0.375000 0.248195
vt 0.438682 0.244584
vt 0.438682 0.254062
vt 0.625000 0.251805
vt 0.561318 0.255416
vt 0.561318 0.245938
vt 0.372292 0.747292
vt 0.438682 0.744584
vt 0.438682 0.754062
vt 0.627708 0.750000
vt 0.561318 0.755416
vt 0.561318 0.745938
vt 0.372292 0.500000
vt 0.438682 0.494584
vt 0.438682 0.504062
vt 0.627708 0.502708
vt 0.561318 0.505416
vt 0.561318 0.495938
vt 0.375000 0.005416
vt 0.438682 0.005416
vt 0.438682 0.000000
vt 0.561318 0.000000
vt 0.561318 0.005416
vt 0.625000 0.005416
vt 0.130416 0.505416
vt 0.130416 0.744584
vt 0.869584 0.505416
vt 0.869584 0.744584
s 0
usemtl Frame
f 113/109/37 114/110/37 115/111/37
f 116/112/38 117/113/38 118/114/38
f 119/115/39 120/116/39 121/117/39
f 122/118/40 123/119/40 124/120/40
f 125/121/41 126/122/41 127/123/41
f 128/124/42 129/125/42 130/126/42
f 131/127/43 132/128/43 133/129/43
f 134/130/44 135/131/44 136/132/44
f 119/115/45 113/133/45 115/134/45 120/116/45
f 114/135/46 116/136/46 118/137/46 115/134/46
f 117/138/47 122/118/47 124/120/47 118/137/47
f 123/119/48 121/117/48 120/116/48 124/120/48
f 131/127/49 119/115/49 121/117/49 132/128/49
f 122/118/50 134/130/50 136/132/50 123/119/50
f 135/131/51 133/129/51 132/128/51 136/132/51
f 125/121/52 131/127/52 133/129/52 126/122/52
f 134/130/53 128/124/53 130/126/53 135/131/53
f 129/125/54 127/123/54 126/122/54 130/126/54
f 113/109/55 125/121/55 127/123/55 114/110/55
f 128/124/56 117/113/56 116/112/56 129/125/56
f 119/139/57 131/127/57 125/121/57 113/140/57
f 115/134/58 118/137/58 124/120/58 120/116/58
f 127/123/59 129/125/59 116/112/59 114/110/59
f 134/130/60 122/141/60 117/142/60 128/124/60
f 121/117/61 123/119/61 136/132/61 132/128/61
f 133/129/62 135/131/62 130/126/62 126/122/62
o Cylinder.002
v 0.384264 0.167305 -0.045078
v 0.384264 0.208790 -0.045078
v 0.421204 0.167305 -0.035180
v 0.421204 0.208790 -0.035180
v 0.448245 0.167305 -0.008138
v 0.448245 0.208790 -0.008138
v 0.458143 0.167305 0.028801
v 0.458143 0.208790 0.028801
v 0.448245 0.167305 0.065741
v 0.448245 0.208790 0.065741
v 0.421204 0.167305 0.092783
v 0.421204 0.208790 0.092783
v 0.384264 0.167305 0.102681
v 0.384264 0.208790 0.102681
v 0.347324 0.167305 0.092783
v 0.347324 0.208790 0.092783
v 0.320283 0.167305 0.065741
v 0.320283 0.208790 0.065741
v 0.310385 0.167305 0.028801
v 0.310385 0.208790 0.028801
v 0.320283 0.167305 -0.008138
v 0.320283 0.208790 -0.008138
v 0.347324 0.167305 -0.035180
v 0.347324 0.208790 -0.035180
v 0.402293 0.176043 -0.238362
v 0.402293 0.200051 -0.238362
v 0.502233 0.200051 -0.211583
v 0.502233 0.176043 -0.211583
v 0.624649 0.176043 -0.089167
v 0.624649 0.200051 -0.089167
v 0.651428 0.200051 0.010773
v 0.651428 0.176043 0.010773
v 0.606620 0.176043 0.177996
v 0.606620 0.200051 0.177996
v 0.533459 0.200051 0.251158
v 0.533459 0.176043 0.251158
v 0.366236 0.176043 0.295965
v 0.366236 0.200051 0.295965
v 0.266295 0.200051 0.269186
v 0.266295 0.176043 0.269186
v 0.143879 0.176043 0.146770
v 0.143879 0.200051 0.146770
v 0.117100 0.200051 0.046830
v 0.117100 0.176043 0.046830
v 0.161908 0.176043 -0.120393
v 0.161908 0.200051 -0.120393
v 0.235069 0.200051 -0.193555
v 0.235069 0.176043 -0.193555
v 0.384264 0.167305 -0.171079
v 0.484204 0.167305 -0.144300
v 0.484204 0.208790 -0.144300
v 0.384264 0.208790 -0.171079
v 0.557366 0.167305 -0.071139
v 0.557366 0.208790 -0.071139
v 0.584145 0.167305 0.028801
v 0.584145 0.208790 0.028801
v 0.557366 0.167305 0.128742
v 0.557366 0.208790 0.128742
v 0.484204 0.167305 0.201903
v 0.484204 0.208790 0.201903
v 0.384264 0.167305 0.228682
v 0.384264 0.208790 0.228682
v 0.284324 0.167305 0.201903
v 0.284324 0.208790 0.201903
v 0.211163 0.167305 0.128742
v 0.211163 0.208790 0.128742
v 0.184384 0.167305 0.028801
v 0.184384 0.208790 0.028801
v 0.211163 0.167305 -0.071139
v 0.211163 0.208790 -0.071139
v 0.284324 0.167305 -0.144300
v 0.284324 0.208790 -0.144300
v 0.402293 0.176043 -0.238362
v 0.402293 0.200051 -0.238362
v 0.502233 0.200051 -0.211583
v 0.502233 0.176043 -0.211583
v 0.624649 0.176043 -0.089167
v 0.624649 0.200051 -0.089167
v 0.651428 0.200051 0.010773
v 0.651428 0.176043 0.010773
v 0.606620 0.176043 0.177996
v 0.606620 0.200051 0.177996
v 0.533459 0.200051 0.251158
v 0.533459 0.176043 0.251158
v 0.366236 0.176043 0.295965
v 0.366236 0.200051 0.295965
v 0.266295 0.200051 0.269186
v 0.266295 0.176043 0.269186
v 0.143879 0.176043 0.146770
v 0.143879 0.200051 0.146770
v 0.117100 0.200051 0.046830
v 0.117100 0.176043 0.046830
v 0.161908 0.176043 -0.120393
v 0.161908 0.200051 -0.120393
v 0.235069 0.200051 -0.193555
v 0.235069 0.176043 -0.193555
vn 0.7071 -0.0000 -0.7071
vn 0.9659 -0.0000 0.2588
vn 0.2588 -0.0000 0.9659
vn -0.7071 -0.0000 0.7071
vn -0.9659 -0.0000 -0.2588
vn -0.2588 -0.0000 -0.9659
vn 0.0322 0.9922 -0.1202
vn 0.0322 -0.9922 -0.1202
vn 0.1202 0.9922 -0.0322
vn 0.1202 -0.9922 -0.0322
vn 0.0880 0.9922 0.0880
vn 0.0880 -0.9922 0.0880
vn -0.0322 0.9922 0.1202
vn -0.0322 -0.9922 0.1202
vn -0.1202 0.9922 0.0322
vn -0.1202 -0.9922 0.0322
vn -0.0880 0.9922 -0.0880
vn -0.0880 -0.9922 -0.0880
vn -0.0000 -1.0000 -0.0000
vn -0.0000 1.0000 -0.0000
vn 0.7071 -0.0000 0.7071
vn 0.9659 -0.0000 -0.2588
vn 0.2588 -0.0000 -0.9659
vn -0.7071 -0.0000 -0.7071
vn -0.9659 -0.0000 0.2588
vn -0.2588 -0.0000 0.9659
vt 0.916667 0.500000
vt 0.916667 1.000000
vt 0.833333 1.000000
vt 0.833333 0.500000
vt 0.750000 0.500000
vt 0.750000 1.000000
vt 0.666667 1.000000
vt 0.666667 0.500000
vt 0.583333 0.500000
vt 0.583333 1.000000
vt 0.500000 1.000000
vt 0.500000 0.500000
vt 0.416667 0.500000
vt 0.416667 1.000000
vt 0.333333 1.000000
vt 0.333333 0.500000
vt 0.250000 0.500000
vt 0.250000 1.000000
vt 0.166667 1.000000
vt 0.166667 0.500000
vt 0.083333 0.500000
vt 0.083333 1.000000
vt 0.000000 1.000000
vt 0.000000 0.500000
vt 1.000000 1.000000
vt 1.000000 0.500000
vt 0.794354 0.326823
vt 0.750000 0.338708
vt 0.750000 0.490000
vt 0.870000 0.457846
vt 0.250000 0.338708
vt 0.294354 0.326823
vt 0.370000 0.457846
vt 0.250000 0.490000
vt 0.826823 0.294354
vt 0.957846 0.370000
vt 0.326823 0.294354
vt 0.457846 0.370000
vt 0.838708 0.250000
vt 0.990000 0.250000
vt 0.338708 0.250000
vt 0.490000 0.250000
vt 0.826823 0.205646
vt 0.957846 0.130000
vt 0.326823 0.205646
vt 0.457846 0.130000
vt 0.794354 0.173177
vt 0.870000 0.042154
vt 0.294354 0.173177
vt 0.370000 0.042154
vt 0.750000 0.161292
vt 0.750000 0.010000
vt 0.250000 0.161292
vt 0.250000 0.010000
vt 0.705646 0.173177
vt 0.630000 0.042154
vt 0.205646 0.173177
vt 0.130000 0.042154
vt 0.673177 0.205646
vt 0.542154 0.130000
vt 0.173177 0.205646
vt 0.042154 0.130000
vt 0.661292 0.250000
vt 0.510000 0.250000
vt 0.161292 0.250000
vt 0.010000 0.250000
vt 0.673177 0.294354
vt 0.542154 0.370000
vt 0.173177 0.294354
vt 0.042154 0.370000
vt 0.705646 0.326823
vt 0.630000 0.457846
vt 0.205646 0.326823
vt 0.130000 0.457846
s 0
usemtl Brass
f 186/143/63 187/144/63 190/145/63 189/146/63
f 191/147/64 192/148/64 194/149/64 193/150/64
f 195/151/65 196/152/65 198/153/65 197/154/65
f 199/155/66 200/156/66 202/157/66 201/158/66
f 203/159/67 204/160/67 206/161/67 205/162/67
f 207/163/68 208/164/68 188/165/68 185/166/68
f 188/167/67 162/167/67 161/168/67 185/168/67
f 187/144/69 163/144/69 162/167/69 188/167/69
f 186/143/64 164/143/64 163/144/64 187/144/64
f 185/168/70 161/168/70 164/143/70 186/143/70
f 190/145/68 166/145/68 165/146/68 189/146/68
f 192/148/71 167/148/71 166/145/71 190/145/71
f 191/147/65 168/147/65 167/148/65 192/148/65
f 189/146/72 165/146/72 168/147/72 191/147/72
f 194/149/63 170/149/63 169/150/63 193/150/63
f 196/152/73 171/152/73 170/149/73 194/149/73
f 195/151/66 172/151/66 171/152/66 196/152/66
f 193/150/74 169/150/74 172/151/74 195/151/74
f 198/153/64 174/153/64 173/154/64 197/154/64
f 200/156/75 175/156/75 174/153/75 198/153/75
f 199/155/67 176/155/67 175/156/67 200/156/67
f 197/154/76 173/154/76 176/155/76 199/155/76
f 202/157/65 178/157/65 177/158/65 201/158/65
f 204/160/77 179/160/77 178/157/77 202/157/77
f 203/159/68 180/159/68 179/160/68 204/160/68
f 201/158/78 177/158/78 180/159/78 203/159/78
f 206/161/66 182/161/66 181/162/66 205/162/66
f 208/164/79 183/164/79 182/161/79 206/161/79
f 207/163/63 184/163/63 183/164/63 208/164/63
f 205/162/80 181/162/80 184/163/80 207/163/80
f 139/169/81 137/170/81 185/171/81 186/172/81
f 138/173/82 140/174/82 187/175/82 188/176/82
f 141/177/81 139/169/81 186/172/81 189/178/81
f 140/174/82 142/179/82 190/180/82 187/175/82
f 143/181/81 141/177/81 189/178/81 191/182/81
f 142/179/82 144/183/82 192/184/82 190/180/82
f 145/185/81 143/181/81 191/182/81 193/186/81
f 144/183/82 146/187/82 194/188/82 192/184/82
f 147/189/81 145/185/81 193/186/81 195/190/81
f 146/187/82 148/191/82 196/192/82 194/188/82
f 149/193/81 147/189/81 195/190/81 197/194/81
f 148/191/82 150/195/82 198/196/82 196/192/82
f 151/197/81 149/193/81 197/194/81 199/198/81
f 150/195/82 152/199/82 200/200/82 198/196/82
f 153/201/81 151/197/81 199/198/81 201/202/81
f 152/199/82 154/203/82 202/204/82 200/200/82
f 155/205/81 153/201/81 201/202/81 203/206/81
f 154/203/82 156/207/82 204/208/82 202/204/82
f 157/209/81 155/205/81 203/206/81 205/210/81
f 156/207/82 158/211/82 206/212/82 204/208/82
f 159/213/81 157/209/81 205/210/81 207/214/81
f 158/211/82 160/215/82 208/216/82 206/212/82
f 137/170/81 159/213/81 207/214/81 185/171/81
f 160/215/82 138/173/82 188/176/82 208/216/82
f 138/173/65 160/215/65 159/213/65 137/170/65
f 160/215/83 158/211/83 157/209/83 159/213/83
f 158/211/64 156/207/64 155/205/64 157/209/64
f 156/207/84 154/203/84 153/201/84 155/205/84
f 154/203/63 152/199/63 151/197/63 153/201/63
f 152/199/85 150/195/85 149/193/85 151/197/85
f 150/195/68 148/191/68 147/189/68 149/193/68
f 148/191/86 146/187/86 145/185/86 147/189/86
f 146/187/67 144/183/67 143/181/67 145/185/67
f 144/183/87 142/179/87 141/177/87 143/181/87
f 142/179/66 140/174/66 139/169/66 141/177/66
f 140/174/88 138/173/88 137/170/88 139/169/88
f 209/168/85 210/167/85 211/144/85 212/143/85
f 213/146/84 214/145/84 215/148/84 216/147/84
f 217/150/83 218/149/83 219/152/83 220/151/83
f 221/154/88 222/153/88 223/156/88 224/155/88
f 225/158/87 226/157/87 227/160/87 228/159/87
f 229/162/86 230/161/86 231/164/86 232/163/86
o Cylinder.003
v 0.384264 0.086558 -0.034351
v 0.384264 0.289537 -0.034351
v 0.428920 0.086558 -0.015854
v 0.428920 0.289537 -0.015854
v 0.447417 0.086558 0.028801
v 0.447417 0.289537 0.028801
v 0.428920 0.086558 0.073457
v 0.428920 0.289537 0.073457
v 0.384264 0.086558 0.091954
v 0.384264 0.289537 0.091954
v 0.339608 0.086558 0.073457
v 0.339608 0.289537 0.073457
v 0.321111 0.086558 0.028801
v 0.321111 0.289537 0.028801
v 0.339608 0.086558 -0.015854
v 0.339608 0.289537 -0.015854
vn 0.3827 -0.0000 -0.9239
vn 0.9239 -0.0000 -0.3827
vn 0.9239 -0.0000 0.3827
vn 0.3827 -0.0000 0.9239
vn -0.3827 -0.0000 0.9239
vn -0.9239 -0.0000 0.3827
vn -0.0000 1.0000 -0.0000
vn -0.9239 -0.0000 -0.3827
vn -0.3827 -0.0000 -0.9239
vn -0.0000 -1.0000 -0.0000
vt 1.000000 0.500000
vt 1.000000 1.000000
vt 0.875000 1.000000
vt 0.875000 0.500000
vt 0.750000 1.000000
vt 0.750000 0.500000
vt 0.625000 1.000000
vt 0.625000 0.500000
vt 0.500000 1.000000
vt 0.500000 0.500000
vt 0.375000 1.000000
vt 0.375000 0.500000
vt 0.250000 1.000000
vt 0.250000 0.500000
vt 0.419706 0.419706
vt 0.250000 0.490000
vt 0.080294 0.419706
vt 0.010000 0.250000
vt 0.080294 0.080294
vt 0.250000 0.010000
vt 0.419706 0.080294
vt 0.490000 0.250000
vt 0.125000 1.000000
vt 0.125000 0.500000
vt 0.000000 1.000000
vt 0.000000 0.500000
vt 0.750000 0.490000
vt 0.919706 0.419706
vt 0.990000 0.250000
vt 0.919706 0.080294
vt 0.750000 0.010000
vt 0.580294 0.080294
vt 0.510000 0.250000
vt 0.580294 0.419706
s 0
usemtl steel
f 233/217/89 234/218/89 236/219/89 235/220/89
f 235/220/90 236/219/90 238/221/90 237/222/90
f 237/222/91 238/221/91 240/223/91 239/224/91
f 239/224/92 240/223/92 242/225/92 241/226/92
f 241/226/93 242/225/93 244/227/93 243/228/93
f 243/228/94 244/227/94 246/229/94 245/230/94
f 236/231/95 234/232/95 248/233/95 246/234/95 244/235/95 242/236/95 240/237/95 238/238/95
f 245/230/96 246/229/96 248/239/96 247/240/96
f 247/240/97 248/239/97 234/241/97 233/242/97
f 233/243/98 235/244/98 237/245/98 239/246/98 241/247/98 243/248/98 245/249/98 247/250/98
o Cylinder.004
v 0.142753 0.167305 0.292935
v 0.142753 0.208790 0.292935
v 0.165013 0.167305 0.298900
v 0.165013 0.208790 0.298900
v 0.181308 0.167305 0.315195
v 0.181308 0.208790 0.315195
v 0.187272 0.167305 0.337455
v 0.187272 0.208790 0.337455
v 0.181308 0.167305 0.359714
v 0.181308 0.208790 0.359714
v 0.165013 0.167305 0.376009
v 0.165013 0.208790 0.376009
v 0.142753 0.167305 0.381974
v 0.142753 0.208790 0.381974
v 0.120494 0.167305 0.376009
v 0.120494 0.208790 0.376009
v 0.104198 0.167305 0.359714
v 0.104198 0.208790 0.359714
v 0.098234 0.167305 0.337455
v 0.098234 0.208790 0.337455
v 0.104198 0.167305 0.315195
v 0.104198 0.208790 0.315195
v 0.120494 0.167305 0.298900
v 0.120494 0.208790 0.298900
v 0.153617 0.176043 0.176463
v 0.153617 0.200051 0.176463
v 0.213840 0.200051 0.192600
v 0.213840 0.176043 0.192600
v 0.287608 0.176043 0.266367
v 0.287608 0.200051 0.266367
v 0.303744 0.200051 0.326591
v 0.303744 0.176043 0.326591
v 0.276744 0.176043 0.427359
v 0.276744 0.200051 0.427359
v 0.232657 0.200051 0.471445
v 0.232657 0.176043 0.471445
v 0.131889 0.176043 0.498446
v 0.131889 0.200051 0.498446
v 0.071666 0.200051 0.482309
v 0.071666 0.176043 0.482309
v -0.002101 0.176043 0.408542
v -0.002101 0.200051 0.408542
v -0.018238 0.200051 0.348318
v -0.018238 0.176043 0.348318
v 0.008763 0.176043 0.247551
v 0.008763 0.200051 0.247551
v 0.052849 0.200051 0.203464
v 0.052849 0.176043 0.203464
v 0.142753 0.167305 0.217008
v 0.202977 0.167305 0.233144
v 0.202977 0.208790 0.233144
v 0.142753 0.208790 0.217008
v 0.247063 0.167305 0.277231
v 0.247063 0.208790 0.277231
v 0.263200 0.167305 0.337455
v 0.263200 0.208790 0.337455
v 0.247063 0.167305 0.397678
v 0.247063 0.208790 0.397678
v 0.202977 0.167305 0.441765
v 0.202977 0.208790 0.441765
v 0.142753 0.167305 0.457901
v 0.142753 0.208790 0.457901
v 0.082530 0.167305 0.441765
v 0.082530 0.208790 0.441765
v 0.038443 0.167305 0.397678
v 0.038443 0.208790 0.397678
v 0.022306 0.167305 0.337455
v 0.022306 0.208790 0.337455
v 0.038443 0.167305 0.277231
v 0.038443 0.208790 0.277231
v 0.082530 0.167305 0.233144
v 0.082530 0.208790 0.233144
v 0.153617 0.176043 0.176463
v 0.153617 0.200051 0.176463
v 0.213840 0.200051 0.192600
v 0.213840 0.176043 0.192600
v 0.287608 0.176043 0.266367
v 0.287608 0.200051 0.266367
v 0.303744 0.200051 0.326591
v 0.303744 0.176043 0.326591
v 0.276744 0.176043 0.427359
v 0.276744 0.200051 0.427359
v 0.232657 0.200051 0.471445
v 0.232657 0.176043 0.471445
v 0.131889 0.176043 0.498446
v 0.131889 0.200051 0.498446
v 0.071666 0.200051 0.482309
v 0.071666 0.176043 0.482309
v -0.002101 0.176043 0.408542
v -0.002101 0.200051 0.408542
v -0.018238 0.200051 0.348318
v -0.018238 0.176043 0.348318
v 0.008763 0.176043 0.247551
v 0.008763 0.200051 0.247551
v 0.052849 0.200051 0.203464
v 0.052849 0.176043 0.203464
vn 0.7071 -0.0000 -0.7071
vn 0.9659 -0.0000 0.2588
vn 0.2588 -0.0000 0.9659
vn -0.7071 -0.0000 0.7071
vn -0.9659 -0.0000 -0.2588
vn -0.2588 -0.0000 -0.9659
vn 0.0527 0.9790 -0.1969
vn 0.0527 -0.9790 -0.1969
vn 0.1969 0.9790 -0.0527
vn 0.1969 -0.9790 -0.0527
vn 0.1441 0.9790 0.1441
vn 0.1441 -0.9790 0.1441
vn -0.0527 0.9790 0.1969
vn -0.0527 -0.9790 0.1969
vn -0.1969 0.9790 0.0527
vn -0.1969 -0.9790 0.0527
vn -0.1441 0.9790 -0.1441
vn -0.1441 -0.9790 -0.1441
vn -0.0000 -1.0000 -0.0000
vn -0.0000 1.0000 -0.0000
vn 0.7071 -0.0000 0.7071
vn 0.9659 -0.0000 -0.2588
vn 0.2588 -0.0000 -0.9659
vn -0.7071 -0.0000 -0.7071
vn -0.9659 -0.0000 0.2588
vn -0.2588 -0.0000 0.9659
vt 0.916667 0.500000
vt 0.916667 1.000000
vt 0.833333 1.000000
vt 0.833333 0.500000
vt 0.750000 0.500000
vt 0.750000 1.000000
vt 0.666667 1.000000
vt 0.666667 0.500000
vt 0.583333 0.500000
vt 0.583333 1.000000
vt 0.500000 1.000000
vt 0.500000 0.500000
vt 0.416667 0.500000
vt 0.416667 1.000000
vt 0.333333 1.000000
vt 0.333333 0.500000
vt 0.250000 0.500000
vt 0.250000 1.000000
vt 0.166667 1.000000
vt 0.166667 0.500000
vt 0.083333 0.500000
vt 0.083333 1.000000
vt 0.000000 1.000000
vt 0.000000 0.500000
vt 1.000000 1.000000
vt 1.000000 0.500000
vt 0.794354 0.326823
vt 0.750000 0.338708
vt 0.750000 0.490000
vt 0.870000 0.457846
vt 0.250000 0.338708
vt 0.294354 0.326823
vt 0.370000 0.457846
vt 0.250000 0.490000
vt 0.826823 0.294354
vt 0.957846 0.370000
vt 0.326823 0.294354
vt 0.457846 0.370000
vt 0.838708 0.250000
vt 0.990000 0.250000
vt 0.338708 0.250000
vt 0.490000 0.250000
vt 0.826823 0.205646
vt 0.957846 0.130000
vt 0.326823 0.205646
vt 0.457846 0.130000
vt 0.794354 0.173177
vt 0.870000 0.042154
vt 0.294354 0.173177
vt 0.370000 0.042154
vt 0.750000 0.161292
vt 0.750000 0.010000
vt 0.250000 0.161292
vt 0.250000 0.010000
vt 0.705646 0.173177
vt 0.630000 0.042154
vt 0.205646 0.173177
vt 0.130000 0.042154
vt 0.673177 0.205646
vt 0.542154 0.130000
vt 0.173177 0.205646
vt 0.042154 0.130000
vt 0.661292 0.250000
vt 0.510000 0.250000
vt 0.161292 0.250000
vt 0.010000 0.250000
vt 0.673177 0.294354
vt 0.542154 0.370000
vt 0.173177 0.294354
vt 0.042154 0.370000
vt 0.705646 0.326823
vt 0.630000 0.457846
vt 0.205646 0.326823
vt 0.130000 0.457846
s 0
usemtl Brass
f 298/251/99 299/252/99 302/253/99 301/254/99
f 303/255/100 304/256/100 306/257/100 305/258/100
f 307/259/101 308/260/101 310/261/101 309/262/101
f 311/263/102 312/264/102 314/265/102 313/266/102
f 315/267/103 316/268/103 318/269/103 317/270/103
f 319/271/104 320/272/104 300/273/104 297/274/104
f 300/275/103 274/275/103 273/276/103 297/276/103
f 299/252/105 275/252/105 274/275/105 300/275/105
f 298/251/100 276/251/100 275/252/100 299/252/100
f 297/276/106 273/276/106 276/251/106 298/251/106
f 302/253/104 278/253/104 277/254/104 301/254/104
f 304/256/107 279/256/107 278/253/107 302/253/107
f 303/255/101 280/255/101 279/256/101 304/256/101
f 301/254/108 277/254/108 280/255/108 303/255/108
f 306/257/99 282/257/99 281/258/99 305/258/99
f 308/260/109 283/260/109 282/257/109 306/257/109
f 307/259/102 284/259/102 283/260/102 308/260/102
f 305/258/110 281/258/110 284/259/110 307/259/110
f 310/261/100 286/261/100 285/262/100 309/262/100
f 312/264/111 287/264/111 286/261/111 310/261/111
f 311/263/103 288/263/103 287/264/103 312/264/103
f 309/262/112 285/262/112 288/263/112 311/263/112
f 314/265/101 290/265/101 289/266/101 313/266/101
f 316/268/113 291/268/113 290/265/113 314/265/113
f 315/267/104 292/267/104 291/268/104 316/268/104
f 313/266/114 289/266/114 292/267/114 315/267/114
f 318/269/102 294/269/102 293/270/102 317/270/102
f 320/272/115 295/272/115 294/269/115 318/269/115
f 319/271/99 296/271/99 295/272/99 320/272/99
f 317/270/116 293/270/116 296/271/116 319/271/116
f 251/277/117 249/278/117 297/279/117 298/280/117
f 250/281/118 252/282/118 299/283/118 300/284/118
f 253/285/117 251/277/117 298/280/117 301/286/117
f 252/282/118 254/287/118 302/288/118 299/283/118
f 255/289/117 253/285/117 301/286/117 303/290/117
f 254/287/118 256/291/118 304/292/118 302/288/118
f 257/293/117 255/289/117 303/290/117 305/294/117
f 256/291/118 258/295/118 306/296/118 304/292/118
f 259/297/117 257/293/117 305/294/117 307/298/117
f 258/295/118 260/299/118 308/300/118 306/296/118
f 261/301/117 259/297/117 307/298/117 309/302/117
f 260/299/118 262/303/118 310/304/118 308/300/118
f 263/305/117 261/301/117 309/302/117 311/306/117
f 262/303/118 264/307/118 312/308/118 310/304/118
f 265/309/117 263/305/117 311/306/117 313/310/117
f 264/307/118 266/311/118 314/312/118 312/308/118
f 267/313/117 265/309/117 313/310/117 315/314/117
f 266/311/118 268/315/118 316/316/118 314/312/118
f 269/317/117 267/313/117 315/314/117 317/318/117
f 268/315/118 270/319/118 318/320/118 316/316/118
f 271/321/117 269/317/117 317/318/117 319/322/117
f 270/319/118 272/323/118 320/324/118 318/320/118
f 249/278/117 271/321/117 319/322/117 297/279/117
f 272/323/118 250/281/118 300/284/118 320/324/118
f 250/281/101 272/323/101 271/321/101 249/278/101
f 272/323/119 270/319/119 269/317/119 271/321/119
f 270/319/100 268/315/100 267/313/100 269/317/100
f 268/315/120 266/311/120 265/309/120 267/313/120
f 266/311/99 264/307/99 263/305/99 265/309/99
f 264/307/121 262/303/121 261/301/121 263/305/121
f 262/303/104 260/299/104 259/297/104 261/301/104
f 260/299/122 258/295/122 257/293/122 259/297/122
f 258/295/103 256/291/103 255/289/103 257/293/103
f 256/291/123 254/287/123 253/285/123 255/289/123
f 254/287/102 252/282/102 251/277/102 253/285/102
f 252/282/124 250/281/124 249/278/124 251/277/124
f 321/276/121 322/275/121 323/252/121 324/251/121
f 325/254/120 326/253/120 327/256/120 328/255/120
f 329/258/119 330/257/119 331/260/119 332/259/119
f 333/262/124 334/261/124 335/264/124 336/263/124
f 337/266/123 338/265/123 339/268/123 340/267/123
f 341/270/122 342/269/122 343/272/122 344/271/122
o Cylinder.005
v 0.142753 0.086558 0.299399
v 0.142753 0.289537 0.299399
v 0.169663 0.086558 0.310545
v 0.169663 0.289537 0.310545
v 0.180809 0.086558 0.337455
v 0.180809 0.289537 0.337455
v 0.169663 0.086558 0.364364
v 0.169663 0.289537 0.364364
v 0.142753 0.086558 0.375510
v 0.142753 0.289537 0.375510
v 0.115844 0.086558 0.364364
v 0.115844 0.289537 0.364364
v 0.104698 0.086558 0.337455
v 0.104698 0.289537 0.337455
v 0.115844 0.086558 0.310545
v 0.115844 0.289537 0.310545
vn 0.3827 -0.0000 -0.9239
vn 0.9239 -0.0000 -0.3827
vn 0.9239 -0.0000 0.3827
vn 0.3827 -0.0000 0.9239
vn -0.3827 -0.0000 0.9239
vn -0.9239 -0.0000 0.3827
vn -0.0000 1.0000 -0.0000
vn -0.9239 -0.0000 -0.3827
vn -0.3827 -0.0000 -0.9239
vn -0.0000 -1.0000 -0.0000
vt 1.000000 0.500000
vt 1.000000 1.000000
vt 0.875000 1.000000
vt 0.875000 0.500000
vt 0.750000 1.000000
vt 0.750000 0.500000
vt 0.625000 1.000000
vt 0.625000 0.500000
vt 0.500000 1.000000
vt 0.500000 0.500000
vt 0.375000 1.000000
vt 0.375000 0.500000
vt 0.250000 1.000000
vt 0.250000 0.500000
vt 0.419706 0.419706
vt 0.250000 0.490000
vt 0.080294 0.419706
vt 0.010000 0.250000
vt 0.080294 0.080294
vt 0.250000 0.010000
vt 0.419706 0.080294
vt 0.490000 0.250000
vt 0.125000 1.000000
vt 0.125000 0.500000
vt 0.000000 1.000000
vt 0.000000 0.500000
vt 0.750000 0.490000
vt 0.919706 0.419706
vt 0.990000 0.250000
vt 0.919706 0.080294
vt 0.750000 0.010000
vt 0.580294 0.080294
vt 0.510000 0.250000
vt 0.580294 0.419706
s 0
usemtl steel
f 345/325/125 346/326/125 348/327/125 347/328/125
f 347/328/126 348/327/126 350/329/126 349/330/126
f 349/330/127 350/329/127 352/331/127 351/332/127
f 351/332/128 352/331/128 354/333/128 353/334/128
f 353/334/129 354/333/129 356/335/129 355/336/129
f 355/336/130 356/335/130 358/337/130 357/338/130
f 348/339/131 346/340/131 360/341/131 358/342/131 356/343/131 354/344/131 352/345/131 350/346/131
f 357/338/132 358/337/132 360/347/132 359/348/132
f 359/348/133 360/347/133 346/349/133 345/350/133
f 345/351/134 347/352/134 349/353/134 351/354/134 353/355/134 355/356/134 357/357/134 359/358/134
