# Blender 5.2.0 LTS
# www.blender.org
mtllib fiber.mtl
o NurbsPath
v -1.382492 -1.260702 0.101438
v -1.031008 -1.132176 -0.107333
v -1.008080 -1.161122 -0.086441
v -1.011728 -1.187721 -0.119293
v -1.034656 -1.158775 -0.140184
v -0.750434 -0.956978 -0.205986
v -0.723914 -0.983660 -0.186370
v -0.716076 -1.003019 -0.223300
v -0.742595 -0.976337 -0.242916
v -0.529706 -0.719375 -0.221053
v -0.500161 -0.742897 -0.201719
v -0.483806 -0.753362 -0.239442
v -0.513352 -0.729840 -0.258776
v -0.353216 -0.432601 -0.176782
v -0.321975 -0.453496 -0.157100
v -0.301200 -0.457112 -0.193915
v -0.332441 -0.436217 -0.213597
v -0.203864 -0.111692 -0.094708
v -0.172005 -0.131327 -0.074722
v -0.149490 -0.131397 -0.110681
v -0.181349 -0.111761 -0.130667
v -0.061171 0.227000 0.005409
v -0.029485 0.206975 0.025285
v -0.006745 0.207410 -0.010530
v -0.038431 0.227435 -0.030406
v 0.099317 0.566761 0.105860
v 0.129880 0.544486 0.125087
v 0.151528 0.542730 0.088641
v 0.120964 0.565005 0.069414
v 0.305957 0.890432 0.191117
v 0.333766 0.864039 0.209284
v 0.352458 0.857865 0.171701
v 0.324649 0.884258 0.153534
v 0.590387 1.179663 0.247766
v 0.613088 1.148212 0.264956
v 0.626433 1.136744 0.226351
v 0.603732 1.168194 0.209160
v 0.986182 1.414997 0.264849
v 1.001963 1.379408 0.281712
v 1.008445 1.363835 0.242783
v 0.992664 1.399424 0.225919
v 1.533469 1.550010 0.223771
vn -0.8359 -0.2336 0.4967
vn -0.3697 0.9122 0.1768
vn 0.4347 -0.1180 0.8928
vn 0.2799 -0.9352 -0.2169
vn -0.4488 -0.0315 -0.8931
vn -0.5846 0.7715 0.2511
vn 0.3534 -0.1794 0.9181
vn 0.5623 -0.7632 -0.3184
vn -0.2720 0.0697 -0.9598
vn -0.7707 0.5719 0.2811
vn 0.2622 -0.2493 0.9323
vn 0.7596 -0.5617 -0.3279
vn -0.1797 0.1875 -0.9657
vn -0.8694 0.4124 0.2722
vn 0.2016 -0.3009 0.9321
vn 0.8645 -0.4050 -0.2977
vn -0.1481 0.2753 -0.9499
vn -0.9072 0.3304 0.2605
vn 0.1649 -0.3295 0.9296
vn 0.9053 -0.3265 -0.2718
vn -0.1466 0.3227 -0.9351
vn -0.9073 0.3270 0.2643
vn 0.1408 -0.3380 0.9306
vn 0.9069 -0.3259 -0.2671
vn -0.1574 0.3440 -0.9257
vn -0.8700 0.4003 0.2879
vn 0.1232 -0.3301 0.9359
vn 0.8704 -0.4008 -0.2860
vn -0.1740 0.3537 -0.9190
vn -0.7746 0.5424 0.3252
vn 0.1137 -0.3097 0.9440
vn 0.7753 -0.5434 -0.3218
vn -0.1901 0.3636 -0.9119
vn -0.6006 0.7151 0.3576
vn 0.1186 -0.2882 0.9502
vn 0.6009 -0.7156 -0.3562
vn -0.1928 0.3767 -0.9060
vn -0.3486 0.8627 0.3663
vn 0.1574 -0.2731 0.9490
vn 0.3964 -0.8407 -0.3691
vn -0.1519 0.3925 -0.9071
vn 0.9565 0.2869 -0.0534
vt 0.000000 1.000000
vt 0.090909 1.000000
vt 0.090909 0.750000
vt 0.000000 0.250000
vt 0.090909 0.250000
vt 0.090909 0.000000
vt 0.000000 0.500000
vt 0.090909 0.500000
vt 0.000000 0.750000
vt 0.181818 1.000000
vt 0.181818 0.750000
vt 0.181818 0.250000
vt 0.181818 0.000000
vt 0.181818 0.500000
vt 0.272727 1.000000
vt 0.272727 0.750000
vt 0.272727 0.250000
vt 0.272727 0.000000
vt 0.272727 0.500000
vt 0.363636 1.000000
vt 0.363636 0.750000
vt 0.363636 0.250000
vt 0.363636 0.000000
vt 0.363636 0.500000
vt 0.454545 1.000000
vt 0.454545 0.750000
vt 0.454545 0.250000
vt 0.454545 0.000000
vt 0.454545 0.500000
vt 0.545455 1.000000
vt 0.545455 0.750000
vt 0.545455 0.250000
vt 0.545455 0.000000
vt 0.545455 0.500000
vt 0.636364 1.000000
vt 0.636364 0.750000
vt 0.636364 0.250000
vt 0.636364 0.000000
vt 0.636364 0.500000
vt 0.727273 1.000000
vt 0.727273 0.750000
vt 0.727273 0.250000
vt 0.727273 0.000000
vt 0.727273 0.500000
vt 0.818182 1.000000
vt 0.818182 0.750000
vt 0.818182 0.250000
vt 0.818182 0.000000
vt 0.818182 0.500000
vt 0.909091 1.000000
vt 0.909091 0.750000
vt 0.909091 0.250000
vt 0.909091 0.000000
vt 0.909091 0.500000
vt 1.000000 0.750000
vt 1.000000 0.000000
vt 1.000000 0.250000
vt 1.000000 0.500000
s 1
usemtl Material.001
f 1/1/1 2/2/2 5/3/5
f 1/4/1 3/5/3 2/6/2
f 1/7/1 4/8/4 3/5/3
f 1/9/1 5/3/5 4/8/4
f 2/2/2 6/10/6 9/11/9 5/3/5
f 3/5/3 7/12/7 6/13/6 2/6/2
f 4/8/4 8/14/8 7/12/7 3/5/3
f 5/3/5 9/11/9 8/14/8 4/8/4
f 6/10/6 10/15/10 13/16/13 9/11/9
f 7/12/7 11/17/11 10/18/10 6/13/6
f 8/14/8 12/19/12 11/17/11 7/12/7
f 9/11/9 13/16/13 12/19/12 8/14/8
f 10/15/10 14/20/14 17/21/17 13/16/13
f 11/17/11 15/22/15 14/23/14 10/18/10
f 12/19/12 16/24/16 15/22/15 11/17/11
f 13/16/13 17/21/17 16/24/16 12/19/12
f 14/20/14 18/25/18 21/26/21 17/21/17
f 15/22/15 19/27/19 18/28/18 14/23/14
f 16/24/16 20/29/20 19/27/19 15/22/15
f 17/21/17 21/26/21 20/29/20 16/24/16
f 18/25/18 22/30/22 25/31/25 21/26/21
f 19/27/19 23/32/23 22/33/22 18/28/18
f 20/29/20 24/34/24 23/32/23 19/27/19
f 21/26/21 25/31/25 24/34/24 20/29/20
f 22/30/22 26/35/26 29/36/29 25/31/25
f 23/32/23 27/37/27 26/38/26 22/33/22
f 24/34/24 28/39/28 27/37/27 23/32/23
f 25/31/25 29/36/29 28/39/28 24/34/24
f 26/35/26 30/40/30 33/41/33 29/36/29
f 27/37/27 31/42/31 30/43/30 26/38/26
f 28/39/28 32/44/32 31/42/31 27/37/27
f 29/36/29 33/41/33 32/44/32 28/39/28
f 30/40/30 34/45/34 37/46/37 33/41/33
f 31/42/31 35/47/35 34/48/34 30/43/30
f 32/44/32 36/49/36 35/47/35 31/42/31
f 33/41/33 37/46/37 36/49/36 32/44/32
f 34/45/34 38/50/38 41/51/41 37/46/37
f 35/47/35 39/52/39 38/53/38 34/48/34
f 36/49/36 40/54/40 39/52/39 35/47/35
f 37/46/37 41/51/41 40/54/40 36/49/36
f 38/50/38 42/55/42 41/51/41
f 39/52/39 42/56/42 38/53/38
f 40/54/40 42/57/42 39/52/39
f 41/51/41 42/58/42 40/54/40
