# Blender 5.2.0 LTS
# www.blender.org
mtllib flask.mtl
o Sphere
v 0.083661 0.454280 -0.024922
v 0.057528 0.250266 -0.243565
v 0.081357 0.000000 -0.344453
v 0.057528 -0.185821 -0.243565
v 0.000000 -0.204250 0.000000
v 0.069008 0.326989 -0.096292
v 0.127510 0.250266 -0.177924
v 0.166600 0.135443 -0.232469
v 0.180326 0.000000 -0.251622
v 0.166600 -0.135443 -0.232469
v 0.127510 -0.185821 -0.177924
v 0.069008 -0.209532 -0.096292
v 0.080523 0.326989 -0.023987
v 0.148788 0.250266 -0.044322
v 0.194400 0.135443 -0.057910
v 0.210417 0.000000 -0.062681
v 0.194400 -0.135443 -0.057910
v 0.148788 -0.185821 -0.044322
v 0.080523 -0.209532 -0.023987
v 0.061281 0.326989 0.057480
v 0.113233 0.250266 0.106209
v 0.147947 0.135443 0.138769
v 0.160136 0.000000 0.150202
v 0.147947 -0.135443 0.138769
v 0.113233 -0.185821 0.106209
v 0.061281 -0.209532 0.057480
v 0.018632 0.326989 0.116992
v 0.034428 0.250266 0.216172
v 0.044982 0.135443 0.282442
v 0.048688 0.000000 0.305714
v 0.044982 -0.135443 0.282442
v 0.034428 -0.185821 0.216172
v 0.018632 -0.209532 0.116992
v -0.031134 0.326989 0.131816
v -0.057528 0.250266 0.243565
v -0.075164 0.135443 0.318233
v -0.081357 0.000000 0.344453
v -0.075164 -0.135443 0.318233
v -0.057528 -0.185821 0.243565
v -0.031134 -0.209532 0.131816
v -0.069008 0.326989 0.096292
v -0.127510 0.250266 0.177924
v -0.166600 0.135443 0.232469
v -0.180326 0.000000 0.251622
v -0.166600 -0.135443 0.232469
v -0.127510 -0.185821 0.177924
v -0.069008 -0.209532 0.096292
v -0.080523 0.326989 0.023987
v -0.148788 0.250266 0.044322
v -0.194400 0.135443 0.057910
v -0.210417 0.000000 0.062681
v -0.194400 -0.135443 0.057910
v -0.148788 -0.185821 0.044322
v -0.080523 -0.209532 0.023987
v -0.061281 0.326989 -0.057480
v -0.113233 0.250266 -0.106209
v -0.147947 0.135443 -0.138769
v -0.160136 0.000000 -0.150202
v -0.147947 -0.135443 -0.138769
v -0.113233 -0.185821 -0.106209
v -0.061281 -0.209532 -0.057480
v -0.018632 0.326989 -0.116992
v -0.034428 0.250266 -0.216172
v -0.044982 0.135443 -0.282442
v -0.048688 0.000000 -0.305714
v -0.044982 -0.135443 -0.282442
v -0.034428 -0.185821 -0.216172
v -0.018632 -0.209532 -0.116992
v 0.031134 0.326989 -0.131816
v 0.075164 0.135443 -0.318233
v 0.075164 -0.135443 -0.318233
v 0.031134 -0.209532 -0.131816
v 0.080523 0.411928 -0.023987
v 0.069008 0.411928 -0.096292
v 0.061281 0.411928 0.057480
v 0.018632 0.411928 0.116992
v -0.031134 0.411928 0.131816
v -0.069008 0.411928 0.096292
v -0.080523 0.411928 0.023987
v -0.061281 0.411928 -0.057480
v -0.018632 0.411928 -0.116992
v 0.031134 0.411928 -0.131816
v 0.000000 0.438869 0.000000
v 0.071697 0.454280 -0.100044
v 0.063669 0.454280 0.059720
v 0.019358 0.454280 0.121550
v -0.032347 0.454280 0.136953
v -0.071697 0.454280 0.100044
v -0.083661 0.454280 0.024922
v -0.063669 0.454280 -0.059720
v -0.019358 0.454280 -0.121550
v 0.032347 0.454280 -0.136953
vn -0.0307 -0.9990 0.0328
vn 0.4130 -0.7972 -0.4403
vn 0.6742 0.1700 -0.7188
vn 0.4176 0.7921 -0.4452
vn 0.1585 -0.9728 -0.1690
vn 0.6742 -0.1700 -0.7188
vn 0.5919 0.5013 -0.6311
vn -0.6841 -0.0000 0.7294
vn 0.3144 -0.9480 -0.0501
vn 0.9802 -0.1214 -0.1561
vn 0.9134 0.3801 -0.1455
vn -0.8128 -0.0000 -0.5825
vn -0.0625 -0.9980 0.0100
vn 0.7208 -0.6836 -0.1148
vn 0.9802 0.1214 -0.1561
vn 0.7266 0.6772 -0.1157
vn 0.9677 -0.1064 0.2286
vn 0.9159 0.3382 0.2163
vn 0.9732 -0.0000 0.2299
vn -0.0704 -0.9974 -0.0166
vn 0.7529 -0.6337 0.1778
vn 0.9677 0.1064 0.2286
vn 0.7581 0.6271 0.1791
vn 0.3488 -0.9336 0.0824
vn -0.0514 -0.9980 -0.0369
vn 0.5933 -0.6836 0.4252
vn 0.8068 0.1214 0.5782
vn 0.5981 0.6772 0.4286
vn 0.2587 -0.9480 0.1854
vn 0.8068 -0.1214 0.5782
vn 0.7518 0.3801 0.5388
vn 0.6841 -0.0000 -0.7294
vn 0.2813 0.1700 0.9444
vn 0.1743 0.7921 0.5850
vn 0.0661 -0.9728 0.2220
vn 0.2813 -0.1700 0.9444
vn 0.2470 0.5013 0.8293
vn 0.9876 -0.0000 -0.1573
vn -0.0128 -0.9990 -0.0431
vn 0.1724 -0.7972 0.5786
vn -0.1585 -0.9728 0.1690
vn -0.6742 -0.1700 0.7188
vn -0.5919 0.5013 0.6311
vn -0.9876 -0.0000 0.1573
vn 0.0307 -0.9990 -0.0328
vn -0.4130 -0.7972 0.4403
vn -0.6742 0.1700 0.7188
vn -0.4176 0.7921 0.4452
vn -0.9134 0.3801 0.1455
vn -0.2855 -0.0000 -0.9584
vn 0.0625 -0.9980 -0.0100
vn -0.7208 -0.6836 0.1148
vn -0.9802 0.1214 0.1561
vn -0.7266 0.6772 0.1157
vn -0.3144 -0.9480 0.0501
vn -0.9802 -0.1214 0.1561
vn 0.0704 -0.9974 0.0166
vn -0.7529 -0.6337 -0.1778
vn -0.9677 0.1064 -0.2286
vn -0.7581 0.6271 -0.1791
vn -0.3488 -0.9336 -0.0824
vn -0.9677 -0.1064 -0.2286
vn -0.9159 0.3382 -0.2163
vn -0.9732 -0.0000 -0.2299
vn -0.5981 0.6772 -0.4286
vn -0.2587 -0.9480 -0.1854
vn -0.8068 -0.1214 -0.5782
vn -0.7518 0.3801 -0.5388
vn 0.8128 -0.0000 0.5825
vn 0.0514 -0.9980 0.0369
vn -0.5933 -0.6836 -0.4252
vn -0.8068 0.1214 -0.5782
vn -0.0661 -0.9728 -0.2220
vn -0.2813 -0.1700 -0.9444
vn -0.2470 0.5013 -0.8293
vn 0.2855 -0.0000 0.9584
vn 0.0128 -0.9990 0.0431
vn -0.1724 -0.7972 -0.5786
vn -0.2813 0.1700 -0.9444
vn -0.1743 0.7921 -0.5850
vn 0.1530 0.9747 -0.1631
vn 0.3039 0.9515 -0.0484
vn 0.3376 0.9379 0.0797
vn 0.2501 0.9515 0.1793
vn 0.0638 0.9747 0.2143
vn -0.1530 0.9747 0.1631
vn -0.3039 0.9515 0.0484
vn -0.3376 0.9379 -0.0797
vn -0.2501 0.9515 -0.1793
vn -0.0638 0.9747 -0.2143
vn -0.9847 -0.0764 0.1568
vn 0.8104 -0.0764 0.5808
vn -0.9710 -0.0669 -0.2294
vn 0.2838 -0.1074 0.9528
vn 0.9847 -0.0764 -0.1568
vn -0.8104 -0.0764 -0.5808
vn -0.6802 -0.1074 0.7251
vn 0.6802 -0.1074 -0.7251
vn 0.9710 -0.0669 0.2294
vn -0.2838 -0.1074 -0.9528
vt 0.650000 0.000000
vt 0.700000 0.125000
vt 0.600000 0.125000
vt 0.700000 0.250000
vt 0.700000 0.375000
vt 0.600000 0.375000
vt 0.600000 0.250000
vt 0.700000 0.500000
vt 0.700000 0.625000
vt 0.600000 0.625000
vt 0.600000 0.500000
vt 0.700000 0.750000
vt 0.700000 0.875000
vt 0.600000 0.875000
vt 0.600000 0.750000
vt 0.100000 0.875000
vt 0.200000 0.875000
vt 0.500000 0.250000
vt 0.500000 0.125000
vt 0.500000 0.500000
vt 0.500000 0.375000
vt 0.500000 0.750000
vt 0.500000 0.625000
vt 0.800000 0.875000
vt 0.900000 0.875000
vt 0.550000 0.000000
vt 0.500000 0.875000
vt 0.400000 0.500000
vt 0.400000 0.375000
vt 0.400000 0.750000
vt 0.400000 0.625000
vt 0.400000 0.875000
vt 0.450000 0.000000
vt 0.400000 0.125000
vt 0.400000 0.250000
vt 0.350000 0.000000
vt 0.300000 0.125000
vt 0.300000 0.375000
vt 0.300000 0.250000
vt 0.300000 0.625000
vt 0.300000 0.500000
vt 0.300000 0.875000
vt 0.300000 0.750000
vt 0.200000 0.625000
vt 0.200000 0.500000
vt 0.200000 0.750000
vt 0.200000 0.250000
vt 0.200000 0.125000
vt 0.200000 0.375000
vt 0.250000 0.000000
vt 0.100000 0.250000
vt 0.100000 0.125000
vt 0.100000 0.500000
vt 0.100000 0.375000
vt 0.100000 0.750000
vt 0.100000 0.625000
vt 0.000000 0.875000
vt 0.150000 0.000000
vt 0.000000 0.750000
vt 0.000000 0.625000
vt 0.050000 0.000000
vt 0.000000 0.125000
vt 0.000000 0.375000
vt 0.000000 0.250000
vt 0.000000 0.500000
vt 0.950000 0.000000
vt 1.000000 0.125000
vt 0.900000 0.125000
vt 1.000000 0.250000
vt 1.000000 0.375000
vt 0.900000 0.375000
vt 0.900000 0.250000
vt 1.000000 0.500000
vt 1.000000 0.625000
vt 0.900000 0.625000
vt 0.900000 0.500000
vt 1.000000 0.750000
vt 1.000000 0.875000
vt 0.900000 0.750000
vt 0.800000 0.750000
vt 0.800000 0.250000
vt 0.800000 0.125000
vt 0.800000 0.500000
vt 0.800000 0.375000
vt 0.800000 0.625000
vt 0.850000 0.000000
vt 0.750000 0.000000
vt 0.650000 1.000000
vt 0.550000 1.000000
vt 0.450000 1.000000
vt 0.350000 1.000000
vt 0.250000 1.000000
vt 0.150000 1.000000
vt 0.050000 1.000000
vt 0.950000 1.000000
vt 0.850000 1.000000
vt 0.750000 1.000000
s 0
usemtl Material.001
f 5/1/1 72/2/1 12/3/1
f 4/4/2 71/5/2 10/6/2 11/7/2
f 3/8/3 70/9/3 8/10/3 9/11/3
f 2/12/4 69/13/4 6/14/4 7/15/4
f 72/2/5 4/4/5 11/7/5 12/3/5
f 71/5/6 3/8/6 9/11/6 10/6/6
f 70/9/7 2/12/7 7/15/7 8/10/7
f 41/16/8 34/17/8 77/17/8 78/16/8
f 12/3/9 11/7/9 18/18/9 19/19/9
f 10/6/10 9/11/10 16/20/10 17/21/10
f 8/10/11 7/15/11 14/22/11 15/23/11
f 62/24/12 55/25/12 80/25/12 81/24/12
f 5/26/13 12/3/13 19/19/13
f 11/7/14 10/6/14 17/21/14 18/18/14
f 9/11/15 8/10/15 15/23/15 16/20/15
f 7/15/16 6/14/16 13/27/16 14/22/16
f 17/21/17 16/20/17 23/28/17 24/29/17
f 15/23/18 14/22/18 21/30/18 22/31/18
f 20/32/19 13/27/19 73/27/19 75/32/19
f 5/33/20 19/19/20 26/34/20
f 18/18/21 17/21/21 24/29/21 25/35/21
f 16/20/22 15/23/22 22/31/22 23/28/22
f 14/22/23 13/27/23 20/32/23 21/30/23
f 19/19/24 18/18/24 25/35/24 26/34/24
f 5/36/25 26/34/25 33/37/25
f 25/35/26 24/29/26 31/38/26 32/39/26
f 23/28/27 22/31/27 29/40/27 30/41/27
f 21/30/28 20/32/28 27/42/28 28/43/28
f 26/34/29 25/35/29 32/39/29 33/37/29
f 24/29/30 23/28/30 30/41/30 31/38/30
f 22/31/31 21/30/31 28/43/31 29/40/31
f 6/14/32 69/13/32 82/13/32 74/14/32
f 30/41/33 29/40/33 36/44/33 37/45/33
f 28/43/34 27/42/34 34/17/34 35/46/34
f 33/37/35 32/39/35 39/47/35 40/48/35
f 31/38/36 30/41/36 37/45/36 38/49/36
f 29/40/37 28/43/37 35/46/37 36/44/37
f 13/27/38 6/14/38 74/14/38 73/27/38
f 5/50/39 33/37/39 40/48/39
f 32/39/40 31/38/40 38/49/40 39/47/40
f 40/48/41 39/47/41 46/51/41 47/52/41
f 38/49/42 37/45/42 44/53/42 45/54/42
f 36/44/43 35/46/43 42/55/43 43/56/43
f 48/57/44 41/16/44 78/16/44 79/57/44
f 5/58/45 40/48/45 47/52/45
f 39/47/46 38/49/46 45/54/46 46/51/46
f 37/45/47 36/44/47 43/56/47 44/53/47
f 35/46/48 34/17/48 41/16/48 42/55/48
f 43/56/49 42/55/49 49/59/49 50/60/49
f 69/13/50 62/24/50 81/24/50 82/13/50
f 5/61/51 47/52/51 54/62/51
f 46/51/52 45/54/52 52/63/52 53/64/52
f 44/53/53 43/56/53 50/60/53 51/65/53
f 42/55/54 41/16/54 48/57/54 49/59/54
f 47/52/55 46/51/55 53/64/55 54/62/55
f 45/54/56 44/53/56 51/65/56 52/63/56
f 5/66/57 54/67/57 61/68/57
f 53/69/58 52/70/58 59/71/58 60/72/58
f 51/73/59 50/74/59 57/75/59 58/76/59
f 49/77/60 48/78/60 55/25/60 56/79/60
f 54/67/61 53/69/61 60/72/61 61/68/61
f 52/70/62 51/73/62 58/76/62 59/71/62
f 50/74/63 49/77/63 56/79/63 57/75/63
f 55/25/64 48/78/64 79/78/64 80/25/64
f 56/79/65 55/25/65 62/24/65 63/80/65
f 61/68/66 60/72/66 67/81/66 68/82/66
f 59/71/67 58/76/67 65/83/67 66/84/67
f 57/75/68 56/79/68 63/80/68 64/85/68
f 27/42/69 20/32/69 75/32/69 76/42/69
f 5/86/70 61/68/70 68/82/70
f 60/72/71 59/71/71 66/84/71 67/81/71
f 58/76/72 57/75/72 64/85/72 65/83/72
f 68/82/73 67/81/73 4/4/73 72/2/73
f 66/84/74 65/83/74 3/8/74 71/5/74
f 64/85/75 63/80/75 2/12/75 70/9/75
f 34/17/76 27/42/76 76/42/76 77/17/76
f 5/87/77 68/82/77 72/2/77
f 67/81/78 66/84/78 71/5/78 4/4/78
f 65/83/79 64/85/79 70/9/79 3/8/79
f 63/80/80 62/24/80 69/13/80 2/12/80
f 82/13/81 83/88/81 74/14/81
f 74/14/82 83/89/82 73/27/82
f 73/27/83 83/90/83 75/32/83
f 75/32/84 83/91/84 76/42/84
f 76/42/85 83/92/85 77/17/85
f 77/17/86 83/93/86 78/16/86
f 78/16/87 83/94/87 79/57/87
f 79/78/88 83/95/88 80/25/88
f 80/25/89 83/96/89 81/24/89
f 81/24/90 83/97/90 82/13/90
f 79/57/91 78/16/91 88/16/91 89/57/91
f 76/42/92 75/32/92 85/32/92 86/42/92
f 80/25/93 79/78/93 89/78/93 90/25/93
f 77/17/94 76/42/94 86/42/94 87/17/94
f 73/27/95 74/14/95 84/14/95 1/27/95
f 81/24/96 80/25/96 90/25/96 91/24/96
f 78/16/97 77/17/97 87/17/97 88/16/97
f 74/14/98 82/13/98 92/13/98 84/14/98
f 75/32/99 73/27/99 1/27/99 85/32/99
f 82/13/100 81/24/100 91/24/100 92/13/100
