# Blender 5.2.0 LTS
# www.blender.org
mtllib half-block.mtl
o half_block
v 1.000000 0.000000 0.000000
v 1.000000 0.000000 1.000000
v 0.000000 0.000000 0.000000
v 0.000000 0.000000 1.000000
v 1.000000 0.500000 -0.000000
v 0.000000 0.500000 1.000000
v 1.000000 0.500000 1.000000
v 0.000000 0.500000 -0.000000
vn -0.0000 1.0000 -0.0000
vn -0.0000 -1.0000 -0.0000
vn -0.0000 -0.0000 -1.0000
vn 1.0000 -0.0000 -0.0000
vn -1.0000 -0.0000 -0.0000
vn -0.0000 -0.0000 1.0000
vt 0.666666 0.666667
vt 0.666666 1.000000
vt 0.333333 1.000000
vt 0.333333 0.666667
vt 0.666600 0.166667
vt 0.666667 0.500000
vt 0.333333 0.500000
vt 0.333333 0.166667
vt 1.000000 0.500000
vt 1.000000 0.666667
vt 0.666667 0.666667
vt 0.333333 0.666667
vt 0.333333 0.500000
vt 0.333333 0.666667
vt 0.666667 0.666667
vt 0.666667 0.500000
vt 0.000000 0.666667
vt -0.000492 0.500000
s 1
usemtl checkerboard
f 5/1/1 8/2/1 6/3/1 7/4/1
f 3/5/2 1/6/2 2/7/2 4/8/2
f 3/9/3 8/10/3 5/11/3 1/6/3
f 1/6/4 5/11/4 7/12/4 2/7/4
f 4/13/5 6/14/5 8/15/5 3/16/5
f 2/7/6 7/12/6 6/17/6 4/18/6
