# Blender 5.2.0 LTS
# www.blender.org
mtllib stairs-corner-left.mtl
o stairs_corner_left
v 1.000000 0.000000 1.000000
v 0.500000 0.500000 0.500000
v 1.000000 0.000000 0.000000
v 0.000000 0.000000 1.000000
v 0.000000 1.000000 0.000000
v 0.000000 0.000000 0.000000
v 1.000000 0.500000 1.000000
v 0.000000 0.500000 0.000000
v 1.000000 0.500000 0.000000
v 0.000000 0.500000 1.000000
v 0.500000 0.000000 1.000000
v 0.500000 1.000000 0.000000
v 0.500000 0.000000 0.000000
v 0.500000 0.500000 1.000000
v 0.500000 0.500000 0.000000
v 0.000000 0.000000 0.500000
v 0.000000 1.000000 0.500000
v 1.000000 0.000000 0.500000
v 1.000000 0.500000 0.500000
v 0.000000 0.500000 0.500000
v 0.500000 0.000000 0.500000
v 0.500000 1.000000 0.500000
vn -0.0000 1.0000 -0.0000
vn -0.0000 -0.0000 -1.0000
vn -0.0000 -1.0000 -0.0000
vn -0.0000 -0.0000 1.0000
vn 1.0000 -0.0000 -0.0000
vn -1.0000 -0.0000 -0.0000
vt 0.500000 0.833333
vt 0.500000 1.000000
vt 0.666666 1.000000
vt 0.666666 0.833333
vt 0.833333 0.500000
vt 0.833333 0.666666
vt 1.000000 0.666666
vt 1.000000 0.500000
vt 0.333330 0.833333
vt 0.333330 1.000000
vt 0.500000 0.833333
vt 0.500000 0.166667
vt 0.500000 0.333333
vt 0.666667 0.333333
vt 0.666667 0.166667
vt 0.166667 0.333333
vt 0.166667 0.500000
vt 0.333333 0.500000
vt 0.333333 0.333333
vt 0.500000 0.333333
vt 0.500000 0.500000
vt 0.666666 0.500000
vt 0.666660 0.333333
vt 0.666667 0.500000
vt 0.666667 0.333333
vt 0.833333 0.333333
vt 1.000000 0.333333
vt 0.000000 0.333333
vt 0.000000 0.500000
vt 0.166667 0.500000
vt 0.000000 0.666660
vt 0.166667 0.666667
vt 0.500000 0.000000
vt 0.666660 0.000000
vt 0.333333 0.000000
vt 0.333333 0.166667
vt 0.333333 0.333300
vt 0.333333 0.500000
vt 0.333333 0.666660
vt 0.500000 0.666667
vt 0.500000 0.666660
vt 0.333330 0.666667
vt 0.666667 0.666667
vt 0.666667 0.833333
vt 0.666660 0.500000
vt 0.666666 0.666666
s 1
usemtl checkerboard
f 22/1/1 12/4/1 5/3/1 17/2/1
f 15/5/2 8/8/2 5/7/2 12/6/2
f 14/9/1 2/11/1 20/2/1 10/10/1
f 21/12/3 13/15/3 3/14/3 18/13/3
f 11/16/4 1/19/4 7/18/4 14/17/4
f 18/20/5 3/23/5 9/22/5 19/21/5
f 16/20/6 4/25/6 10/24/6 20/21/6
f 13/26/2 6/27/2 8/8/2 15/5/2
f 3/23/2 13/26/2 15/5/2 9/22/2
f 4/28/4 11/16/4 14/17/4 10/29/4
f 2/30/4 22/32/4 17/31/4 20/29/4
f 16/33/3 6/34/3 13/15/3 21/12/3
f 4/35/3 16/33/3 21/12/3 11/36/3
f 6/37/6 16/20/6 20/21/6 8/38/6
f 1/19/5 18/20/5 19/21/5 7/18/5
f 11/36/3 21/12/3 18/13/3 1/19/3
f 8/38/6 20/21/6 17/40/6 5/39/6
f 2/11/1 14/9/1 7/42/1 19/41/1
f 9/43/1 15/44/1 2/11/1 19/41/1
f 15/21/5 12/41/5 22/46/5 2/45/5
