# Blender 5.2.0 LTS
# www.blender.org
mtllib stairs.mtl
o Cube
v 1.000000 0.000000 0.000000
v 1.000000 0.000000 1.000000
v 0.000000 1.000000 0.000000
v 0.000000 0.000000 0.000000
v 0.000000 1.000000 1.000000
v 0.000000 0.000000 1.000000
v 1.000000 0.500000 0.000000
v 0.000000 0.500000 1.000000
v 1.000000 0.500000 1.000000
v 0.000000 0.500000 0.000000
v 0.500000 0.000000 0.000000
v 0.500000 1.000000 1.000000
v 0.500000 0.000000 1.000000
v 0.500000 1.000000 0.000000
v 0.500000 0.500000 0.000000
v 0.500000 0.500000 1.000000
vn -0.0000 1.0000 -0.0000
vn -0.0000 -0.0000 1.0000
vn -1.0000 -0.0000 -0.0000
vn -0.0000 -1.0000 -0.0000
vn -0.0000 -0.0000 -1.0000
vn 1.0000 -0.0000 -0.0000
vt 0.750000 0.500000
vt 0.875000 0.500000
vt 0.875000 0.750000
vt 0.750000 0.750000
vt 0.500000 0.875000
vt 0.625000 0.875000
vt 0.625000 1.000000
vt 0.500000 1.000000
vt 0.500000 0.000000
vt 0.625000 0.000000
vt 0.625000 0.250000
vt 0.500000 0.250000
vt 0.250000 0.500000
vt 0.375000 0.500000
vt 0.375000 0.750000
vt 0.250000 0.750000
vt 0.375000 0.375000
vt 0.500000 0.375000
vt 0.500000 0.500000
vt 0.500000 0.750000
vt 0.375000 0.000000
vt 0.375000 0.250000
vt 0.375000 0.875000
vt 0.375000 1.000000
vt 0.625000 0.375000
vt 0.125000 0.500000
vt 0.125000 0.750000
s 0
usemtl Material
f 14/1/1 3/2/1 5/3/1 12/4/1
f 16/5/2 12/6/2 5/7/2 8/8/2
f 8/9/3 5/10/3 3/11/3 10/12/3
f 11/13/4 1/14/4 2/15/4 13/16/4
f 11/17/5 15/18/5 7/19/5 1/14/5
f 1/14/6 7/19/6 9/20/6 2/15/6
f 6/21/3 8/9/3 10/12/3 4/22/3
f 13/23/2 16/5/2 8/8/2 6/24/2
f 2/15/2 9/20/2 16/5/2 13/23/2
f 4/22/5 10/12/5 15/18/5 11/17/5
f 10/12/5 3/11/5 14/25/5 15/18/5
f 4/26/4 11/13/4 13/16/4 6/27/4
f 15/18/6 14/1/6 12/6/6 16/5/6
f 15/18/1 16/5/1 9/20/1 7/19/1
