# Blender 5.2.0 LTS
# www.blender.org
mtllib wedge.mtl
o wedge
v 1.000000 0.000000 0.000000
v 1.000000 0.000000 1.000000
v 0.000000 1.000000 -0.000000
v 0.000000 0.000000 0.000000
v 0.000000 1.000000 1.000000
v 0.000000 0.000000 1.000000
v 1.000000 0.000000 0.000000
v 1.000000 0.000000 1.000000
v 0.000000 1.000000 -0.000000
v 0.000000 1.000000 1.000000
vn -0.0000 -0.0000 -1.0000
vn -0.0000 -0.0000 1.0000
vn -1.0000 -0.0000 -0.0000
vn -0.0000 -1.0000 -0.0000
vn 0.7071 0.7071 -0.0000
vt 1.000000 0.333333
vt 1.000000 0.666660
vt 0.666666 0.333333
vt 0.000000 0.666660
vt 0.000000 0.333333
vt 0.333333 0.333333
vt 0.333333 0.333333
vt 0.333333 0.666667
vt 0.666667 0.666666
vt 0.666667 0.333333
vt 0.666667 0.000000
vt 0.666667 0.333333
vt 0.333333 0.000000
vt 0.666667 0.500000
vt 0.666667 1.000000
vt 0.333333 1.000000
vt 0.333333 0.500000
s 1
usemtl checkerboard
f 4/1/1 3/2/1 1/3/1
f 5/4/2 6/5/2 2/6/2
f 6/7/3 5/8/3 3/9/3 4/10/3
f 4/11/4 1/12/4 2/6/4 6/13/4
f 7/14/5 9/15/5 10/16/5 8/17/5
