# Blender 5.2.0 LTS
# www.blender.org
mtllib wedge-corner-left.mtl
o wedge_corner_left
v 1.000000 0.000000 0.000000
v 1.000000 0.000000 1.000000
v 0.000000 1.000000 -0.000000
v 0.000000 0.000000 0.000000
v 0.000000 0.000000 1.000000
vn -1.0000 -0.0000 -0.0000
vn -0.0000 -1.0000 -0.0000
vn -0.0000 0.7071 0.7071
vn -0.0000 -0.0000 -1.0000
vn 0.7071 0.7071 -0.0000
vt 0.666667 0.333333
vt 0.333333 0.333333
vt 0.666667 0.666667
vt 0.666667 0.000000
vt 0.666667 0.333333
vt 0.333333 0.000000
vt 0.333333 0.333333
vt 0.000000 0.833333
vt 0.000000 0.333333
vt 1.000000 0.333333
vt 1.000000 0.666667
vt 0.666667 0.333333
vt 0.666667 0.833333
vt 0.666667 0.333333
s 1
usemtl checkerboard
f 4/1/1 5/2/1 3/3/1
f 4/4/2 1/5/2 2/2/2 5/6/2
f 2/7/3 3/8/3 5/9/3
f 4/10/4 3/11/4 1/12/4
f 3/13/5 2/7/5 1/14/5
