# Blender 5.2.0 LTS
# www.blender.org
mtllib wedge-corner-right.mtl
o wedge_corner_right
v 1.000000 0.000000 0.000000
v 1.000000 0.000000 1.000000
v 0.000000 0.000000 0.000000
v 0.000000 1.000000 1.000000
v 0.000000 0.000000 1.000000
vn -0.0000 -1.0000 -0.0000
vn -1.0000 -0.0000 -0.0000
vn -0.0000 0.7071 -0.7071
vn -0.0000 -0.0000 1.0000
vn 0.7071 0.7071 -0.0000
vt 0.666667 0.000000
vt 0.666667 0.333333
vt 0.333333 0.333330
vt 0.333333 0.000000
vt 0.333333 0.333333
vt 0.333330 0.666660
vt 0.666667 0.333333
vt 0.971667 0.333330
vt 0.971667 0.833333
vt 0.638333 0.333333
vt 0.016667 0.668333
vt 0.021667 0.341667
vt 0.328333 0.335000
vt 0.333333 0.333333
vt 0.333333 0.833333
s 1
usemtl checkerboard
f 3/1/1 1/2/1 2/3/1 5/4/1
f 5/5/2 4/6/2 3/7/2
f 3/8/3 4/9/3 1/10/3
f 4/11/4 5/12/4 2/13/4
f 2/14/5 1/2/5 4/15/5
