# Blender 5.2.0 LTS
# www.blender.org
mtllib weighted_core.mtl
o Cube
v -0.191941 -0.191941 -0.494539
v -0.191941 0.191941 -0.494539
v -0.494539 0.191941 -0.191941
v -0.494539 0.191941 0.191941
v -0.191941 0.191941 0.494539
v -0.191941 -0.191941 0.494539
v -0.494539 -0.191941 -0.191941
v -0.494539 -0.191941 0.191941
v -0.267585 -0.400000 0.267585
v -0.267585 -0.267585 0.400000
v -0.400000 -0.267585 0.267585
v -0.267585 -0.361217 0.361217
v -0.344035 -0.344035 0.344035
v -0.361217 -0.267585 0.361217
v -0.361217 -0.361217 0.267585
v -0.267585 0.267585 0.400000
v -0.267585 0.400000 0.267585
v -0.400000 0.267585 0.267585
v -0.267585 0.361217 0.361217
v -0.344035 0.344035 0.344035
v -0.361217 0.361217 0.267585
v -0.361217 0.267585 0.361217
v -0.267585 -0.400000 -0.267585
v -0.400000 -0.267585 -0.267585
v -0.267585 -0.267585 -0.400000
v -0.361217 -0.361217 -0.267585
v -0.344035 -0.344035 -0.344035
v -0.361217 -0.267585 -0.361217
v -0.267585 -0.361217 -0.361217
v -0.267585 0.400000 -0.267585
v -0.267585 0.267585 -0.400000
v -0.400000 0.267585 -0.267585
v -0.267585 0.361217 -0.361217
v -0.344035 0.344035 -0.344035
v -0.361217 0.267585 -0.361217
v -0.361217 0.361217 -0.267585
v 0.267585 -0.400000 0.267585
v 0.400000 -0.267585 0.267585
v 0.267585 -0.267585 0.400000
v 0.361217 -0.361217 0.267585
v 0.344035 -0.344035 0.344035
v 0.361217 -0.267585 0.361217
v 0.267585 -0.361217 0.361217
v 0.267585 0.400000 0.267585
v 0.267585 0.267585 0.400000
v 0.400000 0.267585 0.267585
v 0.267585 0.361217 0.361217
v 0.344035 0.344035 0.344035
v 0.361217 0.267585 0.361217
v 0.361217 0.361217 0.267585
v 0.267585 -0.400000 -0.267585
v 0.267585 -0.267585 -0.400000
v 0.400000 -0.267585 -0.267585
v 0.267585 -0.361217 -0.361217
v 0.344035 -0.344035 -0.344035
v 0.361217 -0.267585 -0.361217
v 0.361217 -0.361217 -0.267585
v 0.267585 0.400000 -0.267585
v 0.400000 0.267585 -0.267585
v 0.267585 0.267585 -0.400000
v 0.361217 0.361217 -0.267585
v 0.344035 0.344035 -0.344035
v 0.361217 0.267585 -0.361217
v 0.267585 0.361217 -0.361217
v 0.191941 -0.191941 -0.494539
v 0.191941 0.191941 -0.494539
v 0.494539 0.191941 -0.191941
v 0.494539 -0.191941 -0.191941
v 0.494539 -0.191941 0.191941
v 0.494539 0.191941 0.191941
v 0.191941 0.191941 0.494539
v 0.191941 -0.191941 0.494539
v 0.494539 0.267585 0.267585
v 0.494539 0.267585 -0.267585
v 0.494539 -0.267585 -0.267585
v 0.494539 -0.267585 0.267585
v -0.267585 -0.267585 -0.494539
v 0.267585 -0.267585 -0.494539
v -0.494539 -0.267585 -0.267585
v -0.494539 0.267585 -0.267585
v -0.267585 0.267585 -0.494539
v -0.494539 -0.267585 0.267585
v -0.494539 0.267585 0.267585
v -0.267585 -0.267585 0.494539
v -0.267585 0.267585 0.494539
v 0.267585 0.267585 -0.494539
v 0.267585 0.267585 0.494539
v 0.267585 -0.267585 0.494539
v 0.494539 0.191941 0.191941
v 0.494539 0.191941 -0.191941
v 0.494539 -0.191941 -0.191941
v 0.494539 -0.191941 0.191941
v -0.191941 -0.191941 -0.494539
v 0.191941 -0.191941 -0.494539
v -0.494539 -0.191941 -0.191941
v -0.494539 0.191941 -0.191941
v -0.191941 0.191941 -0.494539
v -0.494539 -0.191941 0.191941
v -0.494539 0.191941 0.191941
v -0.191941 -0.191941 0.494539
v -0.191941 0.191941 0.494539
v 0.191941 0.191941 -0.494539
v 0.191941 0.191941 0.494539
v 0.191941 -0.191941 0.494539
v 0.494539 0.191941 0.191941
v 0.494539 0.191941 -0.191941
v 0.494539 -0.191941 -0.191941
v 0.494539 -0.191941 0.191941
v -0.191941 -0.191941 -0.494539
v 0.191941 -0.191941 -0.494539
v -0.494539 -0.191941 -0.191941
v -0.494539 0.191941 -0.191941
v -0.191941 0.191941 -0.494539
v -0.494539 -0.191941 0.191941
v -0.494539 0.191941 0.191941
v -0.191941 -0.191941 0.494539
v -0.191941 0.191941 0.494539
v 0.191941 0.191941 -0.494539
v 0.191941 0.191941 0.494539
v 0.191941 -0.191941 0.494539
v 0.537976 0.191941 0.191941
v 0.537976 0.191941 -0.191941
v 0.537976 -0.191941 -0.191941
v 0.537976 -0.191941 0.191941
v -0.191941 -0.191941 -0.537976
v 0.191941 -0.191941 -0.537976
v -0.537976 -0.191941 -0.191941
v -0.537976 0.191941 -0.191941
v -0.191941 0.191941 -0.537976
v -0.537976 -0.191941 0.191941
v -0.537976 0.191941 0.191941
v -0.191941 -0.191941 0.537976
v -0.191941 0.191941 0.537976
v 0.191941 0.191941 -0.537976
v 0.191941 0.191941 0.537976
v 0.191941 -0.191941 0.537976
vn -0.0000 -0.0000 1.0000
vn -0.0000 1.0000 -0.0000
vn -0.0000 -1.0000 -0.0000
vn -0.3251 -0.8881 0.3251
vn -0.3251 -0.3251 0.8881
vn -0.8881 -0.3251 0.3251
vn -0.3251 0.3251 0.8881
vn -0.3251 0.8881 0.3251
vn -0.8881 0.3251 0.3251
vn -0.3251 -0.8881 -0.3251
vn -0.8881 -0.3251 -0.3251
vn -0.3251 -0.3251 -0.8881
vn -0.3251 0.8881 -0.3251
vn -0.3251 0.3251 -0.8881
vn -0.8881 0.3251 -0.3251
vn 0.3251 -0.8881 0.3251
vn 0.8881 -0.3251 0.3251
vn 0.3251 -0.3251 0.8881
vn 0.3251 0.8881 0.3251
vn 0.3251 0.3251 0.8881
vn 0.8881 0.3251 0.3251
vn 0.3251 -0.8881 -0.3251
vn 0.3251 -0.3251 -0.8881
vn 0.8881 -0.3251 -0.3251
vn 0.3251 0.8881 -0.3251
vn 0.8881 0.3251 -0.3251
vn 0.3251 0.3251 -0.8881
vn -0.3827 -0.9239 -0.0000
vn -0.9239 -0.3827 -0.0000
vn -0.3827 -0.0000 0.9239
vn -0.9239 -0.0000 0.3827
vn -0.3827 0.9239 -0.0000
vn -0.9239 0.3827 -0.0000
vn -0.3827 -0.0000 -0.9239
vn -0.9239 -0.0000 -0.3827
vn -0.0000 -0.9239 -0.3827
vn -0.0000 -0.3827 -0.9239
vn -0.0000 0.9239 -0.3827
vn -0.0000 0.3827 -0.9239
vn 0.9239 -0.0000 -0.3827
vn 0.3827 -0.0000 -0.9239
vn 0.3827 -0.9239 -0.0000
vn 0.9239 -0.3827 -0.0000
vn 0.3827 0.9239 -0.0000
vn 0.9239 0.3827 -0.0000
vn 0.3827 -0.0000 0.9239
vn 0.9239 -0.0000 0.3827
vn -0.0000 -0.9239 0.3827
vn -0.0000 -0.3827 0.9239
vn -0.0000 0.9239 0.3827
vn -0.0000 0.3827 0.9239
vn 1.0000 -0.0000 -0.0000
vn -1.0000 -0.0000 -0.0000
vn -0.0000 -0.0000 -1.0000
vt 0.583620 0.708620
vt 0.416380 0.708620
vt 0.440019 0.815019
vt 0.559981 0.815019
vt 0.559981 0.184981
vt 0.440019 0.184981
vt 0.559981 0.315019
vt 0.559981 0.434981
vt 0.440019 0.434981
vt 0.440019 0.315019
vt 0.416380 0.458620
vt 0.416380 0.291380
vt 0.166380 0.708620
vt 0.166380 0.750000
vt 0.142489 0.750000
vt 0.125000 0.708620
vt 0.416380 0.958620
vt 0.416380 1.000000
vt 0.392489 1.000000
vt 0.375000 0.958620
vt 0.416380 0.041380
vt 0.375000 0.041380
vt 0.375000 0.017489
vt 0.416380 0.000000
vt 0.583620 0.958620
vt 0.625000 0.958620
vt 0.625000 0.982511
vt 0.583620 1.000000
vt 0.833620 0.708620
vt 0.875000 0.708620
vt 0.875000 0.732511
vt 0.833620 0.750000
vt 0.583620 0.041380
vt 0.583620 0.000000
vt 0.607511 0.000000
vt 0.625000 0.041380
vt 0.166380 0.541380
vt 0.125000 0.541380
vt 0.125000 0.517489
vt 0.166380 0.500000
vt 0.416380 0.208620
vt 0.416380 0.250000
vt 0.383745 0.258745
vt 0.375000 0.208620
vt 0.375000 0.291380
vt 0.833620 0.541380
vt 0.833620 0.500000
vt 0.857511 0.500000
vt 0.875000 0.541380
vt 0.583620 0.291380
vt 0.583620 0.250000
vt 0.616255 0.241255
vt 0.625000 0.291380
vt 0.583620 0.208620
vt 0.625000 0.208620
vt 0.333620 0.708620
vt 0.375000 0.708620
vt 0.380830 0.750000
vt 0.354310 0.770690
vt 0.416380 0.750000
vt 0.416380 0.791380
vt 0.666380 0.708620
vt 0.645690 0.770690
vt 0.625000 0.744170
vt 0.625000 0.708620
vt 0.583620 0.791380
vt 0.583620 0.750000
vt 0.333620 0.541380
vt 0.354310 0.479310
vt 0.375000 0.505830
vt 0.375000 0.541380
vt 0.416380 0.500000
vt 0.416380 0.541380
vt 0.666380 0.541380
vt 0.625000 0.541380
vt 0.619170 0.500000
vt 0.645690 0.479310
vt 0.583620 0.541380
vt 0.583620 0.500000
vt 0.583620 0.458620
vt 0.559981 0.684981
vt 0.559981 0.565019
vt 0.440019 0.565019
vt 0.440019 0.684981
vt 0.440019 0.065019
vt 0.559981 0.065019
vt 0.440019 0.934981
vt 0.559981 0.934981
s 0
usemtl core
f 2/7/2 66/8/2 102/8/2 97/7/2
f 65/9/2 1/10/2 93/10/2 94/9/2
f 9/13/4 12/14/4 13/15/4 15/16/4
f 10/17/5 14/18/5 13/19/5 12/20/5
f 11/21/6 15/22/6 13/23/6 14/24/6
f 16/25/7 19/26/7 20/27/7 22/28/7
f 17/29/8 21/30/8 20/31/8 19/32/8
f 18/33/9 22/34/9 20/35/9 21/36/9
f 23/37/10 26/38/10 27/39/10 29/40/10
f 24/41/11 28/42/11 27/43/11 26/44/11
f 25/12/12 29/45/12 27/43/12 28/42/12
f 30/46/13 33/47/13 34/48/13 36/49/13
f 31/50/14 35/51/14 34/52/14 33/53/14
f 32/54/15 36/55/15 34/52/15 35/51/15
f 37/56/16 40/57/16 41/58/16 43/59/16
f 38/2/17 42/60/17 41/58/17 40/57/17
f 39/61/18 43/59/18 41/58/18 42/60/18
f 44/62/19 47/63/19 48/64/19 50/65/19
f 45/66/20 49/67/20 48/64/20 47/63/20
f 46/1/21 50/65/21 48/64/21 49/67/21
f 51/68/22 54/69/22 55/70/22 57/71/22
f 52/11/23 56/72/23 55/70/23 54/69/23
f 53/73/24 57/71/24 55/70/24 56/72/24
f 58/74/25 61/75/25 62/76/25 64/77/25
f 59/78/26 63/79/26 62/76/26 61/75/26
f 60/80/27 64/77/27 62/76/27 63/79/27
f 23/37/28 9/13/28 15/16/28 26/38/28
f 26/44/29 15/22/29 11/21/29 24/41/29
f 10/17/30 16/25/30 22/28/30 14/18/30
f 14/24/31 22/34/31 18/33/31 11/21/31
f 17/29/32 30/46/32 36/49/32 21/30/32
f 21/36/33 36/55/33 32/54/33 18/33/33
f 31/50/34 25/12/34 28/42/34 35/51/34
f 35/51/35 28/42/35 24/41/35 32/54/35
f 51/68/36 23/37/36 29/40/36 54/69/36
f 54/69/37 29/45/37 25/12/37 52/11/37
f 30/46/38 58/74/38 64/77/38 33/47/38
f 33/53/39 64/77/39 60/80/39 31/50/39
f 59/78/40 53/73/40 56/72/40 63/79/40
f 63/79/41 56/72/41 52/11/41 60/80/41
f 37/56/42 51/68/42 57/71/42 40/57/42
f 40/57/43 57/71/43 53/73/43 38/2/43
f 58/74/44 44/62/44 50/65/44 61/75/44
f 61/75/45 50/65/45 46/1/45 59/78/45
f 45/66/46 39/61/46 42/60/46 49/67/46
f 49/67/47 42/60/47 38/2/47 46/1/47
f 9/13/48 37/56/48 43/59/48 12/14/48
f 12/20/49 43/59/49 39/61/49 10/17/49
f 44/62/50 17/29/50 19/32/50 47/63/50
f 47/63/51 19/26/51 16/25/51 45/66/51
f 23/37/3 51/68/3 37/56/3 9/13/3
f 58/74/2 30/46/2 17/29/2 44/62/2
f 92/84/2 91/83/2 107/83/2 108/84/2
f 7/6/2 8/85/2 98/85/2 95/6/2
f 6/87/2 72/3/2 104/3/2 100/87/2
f 4/86/2 3/5/2 96/5/2 99/86/2
f 67/82/2 70/81/2 89/81/2 90/82/2
f 71/4/2 5/88/2 101/88/2 103/4/2
f 69/84/2 68/83/2 91/83/2 92/84/2
f 94/9/2 93/10/2 109/10/2 110/9/2
f 97/7/2 102/8/2 118/8/2 113/7/2
f 95/6/2 98/85/2 114/85/2 111/6/2
f 100/87/2 104/3/2 120/3/2 116/87/2
f 99/86/2 96/5/2 112/5/2 115/86/2
f 90/82/2 89/81/2 105/81/2 106/82/2
f 103/4/2 101/88/2 117/88/2 119/4/2
usemtl body
f 46/1/1 38/2/1 76/2/1 73/1/1
f 72/3/2 71/4/2 103/4/2 104/3/2
f 3/5/2 7/6/2 95/6/2 96/5/2
f 52/11/3 25/12/3 77/12/3 78/11/3
f 45/66/2 16/25/2 85/25/2 87/66/2
f 60/80/52 52/11/52 78/11/52 86/80/52
f 11/21/1 18/33/1 83/33/1 82/21/1
f 39/61/52 45/66/52 87/66/52 88/61/52
f 18/33/2 32/54/2 80/54/2 83/33/2
f 38/2/3 53/73/3 75/73/3 76/2/3
f 25/12/53 31/50/53 81/50/53 77/12/53
f 24/41/3 11/21/3 82/21/3 79/41/3
f 31/50/2 60/80/2 86/80/2 81/50/2
f 10/17/3 39/61/3 88/61/3 84/17/3
f 16/25/53 10/17/53 84/17/53 85/25/53
f 53/73/54 59/78/54 74/78/54 75/73/54
f 32/54/54 24/41/54 79/41/54 80/54/54
f 59/78/2 46/1/2 73/1/2 74/78/2
f 70/81/52 67/82/52 74/78/52 73/1/52
f 68/83/52 69/84/52 76/2/52 75/73/52
f 67/82/52 68/83/52 75/73/52 74/78/52
f 1/10/54 65/9/54 78/11/54 77/12/54
f 7/6/53 3/5/53 80/54/53 79/41/53
f 2/7/54 1/10/54 77/12/54 81/50/54
f 8/85/53 7/6/53 79/41/53 82/21/53
f 3/5/53 4/86/53 83/33/53 80/54/53
f 6/87/1 5/88/1 85/25/1 84/17/1
f 4/86/53 8/85/53 82/21/53 83/33/53
f 65/9/54 66/8/54 86/80/54 78/11/54
f 66/8/54 2/7/54 81/50/54 86/80/54
f 71/4/1 72/3/1 88/61/1 87/66/1
f 69/84/52 70/81/52 73/1/52 76/2/52
f 72/3/1 6/87/1 84/17/1 88/61/1
f 5/88/1 71/4/1 87/66/1 85/25/1
f 91/83/2 90/82/2 106/82/2 107/83/2
f 98/85/2 99/86/2 115/86/2 114/85/2
f 101/88/2 100/87/2 116/87/2 117/88/2
f 1/10/2 2/7/2 97/7/2 93/10/2
f 70/81/2 69/84/2 92/84/2 89/81/2
f 5/88/2 6/87/2 100/87/2 101/88/2
f 8/85/2 4/86/2 99/86/2 98/85/2
f 68/83/2 67/82/2 90/82/2 91/83/2
f 66/8/2 65/9/2 94/9/2 102/8/2
f 115/86/2 112/5/2 128/5/2 131/86/2
f 116/87/3 120/3/3 136/3/3 132/87/3
f 111/6/3 114/85/3 130/85/3 127/6/3
f 105/81/1 108/84/1 124/84/1 121/81/1
f 102/8/2 94/9/2 110/9/2 118/8/2
f 96/5/2 95/6/2 111/6/2 112/5/2
f 104/3/2 103/4/2 119/4/2 120/3/2
f 93/10/2 97/7/2 113/7/2 109/10/2
f 89/81/2 92/84/2 108/84/2 105/81/2
f 123/83/52 122/82/52 121/81/52 124/84/52
f 125/10/54 129/7/54 134/8/54 126/9/54
f 136/3/1 135/4/1 133/88/1 132/87/1
f 130/85/53 131/86/53 128/5/53 127/6/53
f 106/82/2 105/81/2 121/81/2 122/82/2
f 119/4/2 117/88/2 133/88/2 135/4/2
f 117/88/53 116/87/53 132/87/53 133/88/53
f 108/84/3 107/83/3 123/83/3 124/84/3
f 114/85/1 115/86/1 131/86/1 130/85/1
f 107/83/54 106/82/54 122/82/54 123/83/54
f 118/8/52 110/9/52 126/9/52 134/8/52
f 110/9/3 109/10/3 125/10/3 126/9/3
f 113/7/2 118/8/2 134/8/2 129/7/2
f 112/5/54 111/6/54 127/6/54 128/5/54
f 120/3/52 119/4/52 135/4/52 136/3/52
f 109/10/53 113/7/53 129/7/53 125/10/53
o Cylinder
v 0.149081 -0.108131 0.542397
v 0.149081 -0.108131 0.549668
v 0.178106 -0.124888 0.542397
v 0.178106 -0.124888 0.549668
v 0.178106 -0.158403 0.542397
v 0.178106 -0.158403 0.549668
v 0.149081 -0.175161 0.542397
v 0.149081 -0.175161 0.549668
v 0.120056 -0.158403 0.542397
v 0.120056 -0.158403 0.549668
v 0.120056 -0.124888 0.542397
v 0.120056 -0.124888 0.549668
vn 0.5000 0.8660 -0.0000
vn 1.0000 -0.0000 -0.0000
vn 0.5000 -0.8660 -0.0000
vn -0.5000 -0.8660 -0.0000
vn -0.0000 -0.0000 1.0000
vn -1.0000 -0.0000 -0.0000
vn -0.5000 0.8660 -0.0000
vn -0.0000 -0.0000 -1.0000
vt 1.000000 0.500000
vt 1.000000 1.000000
vt 0.833333 1.000000
vt 0.833333 0.500000
vt 0.666667 1.000000
vt 0.666667 0.500000
vt 0.500000 1.000000
vt 0.500000 0.500000
vt 0.333333 1.000000
vt 0.333333 0.500000
vt 0.457846 0.370000
vt 0.250000 0.490000
vt 0.042154 0.370000
vt 0.042154 0.130000
vt 0.250000 0.010000
vt 0.457846 0.130000
vt 0.166667 1.000000
vt 0.166667 0.500000
vt -0.000000 1.000000
vt -0.000000 0.500000
vt 0.750000 0.490000
vt 0.957846 0.370000
vt 0.957846 0.130000
vt 0.750000 0.010000
vt 0.542154 0.130000
vt 0.542154 0.370000
s 0
usemtl Rivets
f 137/89/55 138/90/55 140/91/55 139/92/55
f 139/92/56 140/91/56 142/93/56 141/94/56
f 141/94/57 142/93/57 144/95/57 143/96/57
f 143/96/58 144/95/58 146/97/58 145/98/58
f 140/99/59 138/100/59 148/101/59 146/102/59 144/103/59 142/104/59
f 145/98/60 146/97/60 148/105/60 147/106/60
f 147/106/61 148/105/61 138/107/61 137/108/61
f 137/109/62 139/110/62 141/111/62 143/112/62 145/113/62 147/114/62
o Cylinder.001
v -0.150919 0.181051 0.542397
v -0.150919 0.181051 0.549668
v -0.121894 0.164293 0.542397
v -0.121894 0.164293 0.549668
v -0.121894 0.130779 0.542397
v -0.121894 0.130779 0.549668
v -0.150919 0.114021 0.542397
v -0.150919 0.114021 0.549668
v -0.179944 0.130779 0.542397
v -0.179944 0.130779 0.549668
v -0.179944 0.164293 0.542397
v -0.179944 0.164293 0.549668
vn 0.5000 0.8660 -0.0000
vn 1.0000 -0.0000 -0.0000
vn 0.5000 -0.8660 -0.0000
vn -0.5000 -0.8660 -0.0000
vn -0.0000 -0.0000 1.0000
vn -1.0000 -0.0000 -0.0000
vn -0.5000 0.8660 -0.0000
vn -0.0000 -0.0000 -1.0000
vt 1.000000 0.500000
vt 1.000000 1.000000
vt 0.833333 1.000000
vt 0.833333 0.500000
vt 0.666667 1.000000
vt 0.666667 0.500000
vt 0.500000 1.000000
vt 0.500000 0.500000
vt 0.333333 1.000000
vt 0.333333 0.500000
vt 0.457846 0.370000
vt 0.250000 0.490000
vt 0.042154 0.370000
vt 0.042154 0.130000
vt 0.250000 0.010000
vt 0.457846 0.130000
vt 0.166667 1.000000
vt 0.166667 0.500000
vt -0.000000 1.000000
vt -0.000000 0.500000
vt 0.750000 0.490000
vt 0.957846 0.370000
vt 0.957846 0.130000
vt 0.750000 0.010000
vt 0.542154 0.130000
vt 0.542154 0.370000
s 0
usemtl Rivets
f 149/115/63 150/116/63 152/117/63 151/118/63
f 151/118/64 152/117/64 154/119/64 153/120/64
f 153/120/65 154/119/65 156/121/65 155/122/65
f 155/122/66 156/121/66 158/123/66 157/124/66
f 152/125/67 150/126/67 160/127/67 158/128/67 156/129/67 154/130/67
f 157/124/68 158/123/68 160/131/68 159/132/68
f 159/132/69 160/131/69 150/133/69 149/134/69
f 149/135/70 151/136/70 153/137/70 155/138/70 157/139/70 159/140/70
o Cylinder.002
v -0.150919 -0.108131 0.542397
v -0.150919 -0.108131 0.549668
v -0.121894 -0.124888 0.542397
v -0.121894 -0.124888 0.549668
v -0.121894 -0.158403 0.542397
v -0.121894 -0.158403 0.549668
v -0.150919 -0.175161 0.542397
v -0.150919 -0.175161 0.549668
v -0.179944 -0.158403 0.542397
v -0.179944 -0.158403 0.549668
v -0.179944 -0.124888 0.542397
v -0.179944 -0.124888 0.549668
vn 0.5000 0.8660 -0.0000
vn 1.0000 -0.0000 -0.0000
vn 0.5000 -0.8660 -0.0000
vn -0.5000 -0.8660 -0.0000
vn -0.0000 -0.0000 1.0000
vn -1.0000 -0.0000 -0.0000
vn -0.5000 0.8660 -0.0000
vn -0.0000 -0.0000 -1.0000
vt 1.000000 0.500000
vt 1.000000 1.000000
vt 0.833333 1.000000
vt 0.833333 0.500000
vt 0.666667 1.000000
vt 0.666667 0.500000
vt 0.500000 1.000000
vt 0.500000 0.500000
vt 0.333333 1.000000
vt 0.333333 0.500000
vt 0.457846 0.370000
vt 0.250000 0.490000
vt 0.042154 0.370000
vt 0.042154 0.130000
vt 0.250000 0.010000
vt 0.457846 0.130000
vt 0.166667 1.000000
vt 0.166667 0.500000
vt -0.000000 1.000000
vt -0.000000 0.500000
vt 0.750000 0.490000
vt 0.957846 0.370000
vt 0.957846 0.130000
vt 0.750000 0.010000
vt 0.542154 0.130000
vt 0.542154 0.370000
s 0
usemtl Rivets
f 161/141/71 162/142/71 164/143/71 163/144/71
f 163/144/72 164/143/72 166/145/72 165/146/72
f 165/146/73 166/145/73 168/147/73 167/148/73
f 167/148/74 168/147/74 170/149/74 169/150/74
f 164/151/75 162/152/75 172/153/75 170/154/75 168/155/75 166/156/75
f 169/150/76 170/149/76 172/157/76 171/158/76
f 171/158/77 172/157/77 162/159/77 161/160/77
f 161/161/78 163/162/78 165/163/78 167/164/78 169/165/78 171/166/78
o Cylinder.003
v 0.149081 0.181051 0.542397
v 0.149081 0.181051 0.549668
v 0.178106 0.164293 0.542397
v 0.178106 0.164293 0.549668
v 0.178106 0.130779 0.542397
v 0.178106 0.130779 0.549668
v 0.149081 0.114021 0.542397
v 0.149081 0.114021 0.549668
v 0.120056 0.130779 0.542397
v 0.120056 0.130779 0.549668
v 0.120056 0.164293 0.542397
v 0.120056 0.164293 0.549668
vn 0.5000 0.8660 -0.0000
vn 1.0000 -0.0000 -0.0000
vn 0.5000 -0.8660 -0.0000
vn -0.5000 -0.8660 -0.0000
vn -0.0000 -0.0000 1.0000
vn -1.0000 -0.0000 -0.0000
vn -0.5000 0.8660 -0.0000
vn -0.0000 -0.0000 -1.0000
vt 1.000000 0.500000
vt 1.000000 1.000000
vt 0.833333 1.000000
vt 0.833333 0.500000
vt 0.666667 1.000000
vt 0.666667 0.500000
vt 0.500000 1.000000
vt 0.500000 0.500000
vt 0.333333 1.000000
vt 0.333333 0.500000
vt 0.457846 0.370000
vt 0.250000 0.490000
vt 0.042154 0.370000
vt 0.042154 0.130000
vt 0.250000 0.010000
vt 0.457846 0.130000
vt 0.166667 1.000000
vt 0.166667 0.500000
vt -0.000000 1.000000
vt -0.000000 0.500000
vt 0.750000 0.490000
vt 0.957846 0.370000
vt 0.957846 0.130000
vt 0.750000 0.010000
vt 0.542154 0.130000
vt 0.542154 0.370000
s 0
usemtl Rivets
f 173/167/79 174/168/79 176/169/79 175/170/79
f 175/170/80 176/169/80 178/171/80 177/172/80
f 177/172/81 178/171/81 180/173/81 179/174/81
f 179/174/82 180/173/82 182/175/82 181/176/82
f 176/177/83 174/178/83 184/179/83 182/180/83 180/181/83 178/182/83
f 181/176/84 182/175/84 184/183/84 183/184/84
f 183/184/85 184/183/85 174/185/85 173/186/85
f 173/187/86 175/188/86 177/189/86 179/190/86 181/191/86 183/192/86
o Cylinder.004
v 0.149081 -0.108131 -0.546575
v 0.149081 -0.108131 -0.539304
v 0.178106 -0.124888 -0.546575
v 0.178106 -0.124888 -0.539304
v 0.178106 -0.158403 -0.546575
v 0.178106 -0.158403 -0.539304
v 0.149081 -0.175161 -0.546575
v 0.149081 -0.175161 -0.539304
v 0.120056 -0.158403 -0.546575
v 0.120056 -0.158403 -0.539304
v 0.120056 -0.124888 -0.546575
v 0.120056 -0.124888 -0.539304
vn 0.5000 0.8660 -0.0000
vn 1.0000 -0.0000 -0.0000
vn 0.5000 -0.8660 -0.0000
vn -0.5000 -0.8660 -0.0000
vn -0.0000 -0.0000 1.0000
vn -1.0000 -0.0000 -0.0000
vn -0.5000 0.8660 -0.0000
vn -0.0000 -0.0000 -1.0000
vt 1.000000 0.500000
vt 1.000000 1.000000
vt 0.833333 1.000000
vt 0.833333 0.500000
vt 0.666667 1.000000
vt 0.666667 0.500000
vt 0.500000 1.000000
vt 0.500000 0.500000
vt 0.333333 1.000000
vt 0.333333 0.500000
vt 0.457846 0.370000
vt 0.250000 0.490000
vt 0.042154 0.370000
vt 0.042154 0.130000
vt 0.250000 0.010000
vt 0.457846 0.130000
vt 0.166667 1.000000
vt 0.166667 0.500000
vt -0.000000 1.000000
vt -0.000000 0.500000
vt 0.750000 0.490000
vt 0.957846 0.370000
vt 0.957846 0.130000
vt 0.750000 0.010000
vt 0.542154 0.130000
vt 0.542154 0.370000
s 0
usemtl Rivets
f 185/193/87 186/194/87 188/195/87 187/196/87
f 187/196/88 188/195/88 190/197/88 189/198/88
f 189/198/89 190/197/89 192/199/89 191/200/89
f 191/200/90 192/199/90 194/201/90 193/202/90
f 188/203/91 186/204/91 196/205/91 194/206/91 192/207/91 190/208/91
f 193/202/92 194/201/92 196/209/92 195/210/92
f 195/210/93 196/209/93 186/211/93 185/212/93
f 185/213/94 187/214/94 189/215/94 191/216/94 193/217/94 195/218/94
o Cylinder.005
v -0.150919 0.181051 -0.546575
v -0.150919 0.181051 -0.539304
v -0.121894 0.164293 -0.546575
v -0.121894 0.164293 -0.539304
v -0.121894 0.130779 -0.546575
v -0.121894 0.130779 -0.539304
v -0.150919 0.114021 -0.546575
v -0.150919 0.114021 -0.539304
v -0.179944 0.130779 -0.546575
v -0.179944 0.130779 -0.539304
v -0.179944 0.164293 -0.546575
v -0.179944 0.164293 -0.539304
vn 0.5000 0.8660 -0.0000
vn 1.0000 -0.0000 -0.0000
vn 0.5000 -0.8660 -0.0000
vn -0.5000 -0.8660 -0.0000
vn -0.0000 -0.0000 1.0000
vn -1.0000 -0.0000 -0.0000
vn -0.5000 0.8660 -0.0000
vn -0.0000 -0.0000 -1.0000
vt 1.000000 0.500000
vt 1.000000 1.000000
vt 0.833333 1.000000
vt 0.833333 0.500000
vt 0.666667 1.000000
vt 0.666667 0.500000
vt 0.500000 1.000000
vt 0.500000 0.500000
vt 0.333333 1.000000
vt 0.333333 0.500000
vt 0.457846 0.370000
vt 0.250000 0.490000
vt 0.042154 0.370000
vt 0.042154 0.130000
vt 0.250000 0.010000
vt 0.457846 0.130000
vt 0.166667 1.000000
vt 0.166667 0.500000
vt -0.000000 1.000000
vt -0.000000 0.500000
vt 0.750000 0.490000
vt 0.957846 0.370000
vt 0.957846 0.130000
vt 0.750000 0.010000
vt 0.542154 0.130000
vt 0.542154 0.370000
s 0
usemtl Rivets
f 197/219/95 198/220/95 200/221/95 199/222/95
f 199/222/96 200/221/96 202/223/96 201/224/96
f 201/224/97 202/223/97 204/225/97 203/226/97
f 203/226/98 204/225/98 206/227/98 205/228/98
f 200/229/99 198/230/99 208/231/99 206/232/99 204/233/99 202/234/99
f 205/228/100 206/227/100 208/235/100 207/236/100
f 207/236/101 208/235/101 198/237/101 197/238/101
f 197/239/102 199/240/102 201/241/102 203/242/102 205/243/102 207/244/102
o Cylinder.006
v -0.150919 -0.108131 -0.546575
v -0.150919 -0.108131 -0.539304
v -0.121894 -0.124888 -0.546575
v -0.121894 -0.124888 -0.539304
v -0.121894 -0.158403 -0.546575
v -0.121894 -0.158403 -0.539304
v -0.150919 -0.175161 -0.546575
v -0.150919 -0.175161 -0.539304
v -0.179944 -0.158403 -0.546575
v -0.179944 -0.158403 -0.539304
v -0.179944 -0.124888 -0.546575
v -0.179944 -0.124888 -0.539304
vn 0.5000 0.8660 -0.0000
vn 1.0000 -0.0000 -0.0000
vn 0.5000 -0.8660 -0.0000
vn -0.5000 -0.8660 -0.0000
vn -0.0000 -0.0000 1.0000
vn -1.0000 -0.0000 -0.0000
vn -0.5000 0.8660 -0.0000
vn -0.0000 -0.0000 -1.0000
vt 1.000000 0.500000
vt 1.000000 1.000000
vt 0.833333 1.000000
vt 0.833333 0.500000
vt 0.666667 1.000000
vt 0.666667 0.500000
vt 0.500000 1.000000
vt 0.500000 0.500000
vt 0.333333 1.000000
vt 0.333333 0.500000
vt 0.457846 0.370000
vt 0.250000 0.490000
vt 0.042154 0.370000
vt 0.042154 0.130000
vt 0.250000 0.010000
vt 0.457846 0.130000
vt 0.166667 1.000000
vt 0.166667 0.500000
vt -0.000000 1.000000
vt -0.000000 0.500000
vt 0.750000 0.490000
vt 0.957846 0.370000
vt 0.957846 0.130000
vt 0.750000 0.010000
vt 0.542154 0.130000
vt 0.542154 0.370000
s 0
usemtl Rivets
f 209/245/103 210/246/103 212/247/103 211/248/103
f 211/248/104 212/247/104 214/249/104 213/250/104
f 213/250/105 214/249/105 216/251/105 215/252/105
f 215/252/106 216/251/106 218/253/106 217/254/106
f 212/255/107 210/256/107 220/257/107 218/258/107 216/259/107 214/260/107
f 217/254/108 218/253/108 220/261/108 219/262/108
f 219/262/109 220/261/109 210/263/109 209/264/109
f 209/265/110 211/266/110 213/267/110 215/268/110 217/269/110 219/270/110
o Cylinder.007
v 0.149081 0.181051 -0.546575
v 0.149081 0.181051 -0.539304
v 0.178106 0.164293 -0.546575
v 0.178106 0.164293 -0.539304
v 0.178106 0.130779 -0.546575
v 0.178106 0.130779 -0.539304
v 0.149081 0.114021 -0.546575
v 0.149081 0.114021 -0.539304
v 0.120056 0.130779 -0.546575
v 0.120056 0.130779 -0.539304
v 0.120056 0.164293 -0.546575
v 0.120056 0.164293 -0.539304
vn 0.5000 0.8660 -0.0000
vn 1.0000 -0.0000 -0.0000
vn 0.5000 -0.8660 -0.0000
vn -0.5000 -0.8660 -0.0000
vn -0.0000 -0.0000 1.0000
vn -1.0000 -0.0000 -0.0000
vn -0.5000 0.8660 -0.0000
vn -0.0000 -0.0000 -1.0000
vt 1.000000 0.500000
vt 1.000000 1.000000
vt 0.833333 1.000000
vt 0.833333 0.500000
vt 0.666667 1.000000
vt 0.666667 0.500000
vt 0.500000 1.000000
vt 0.500000 0.500000
vt 0.333333 1.000000
vt 0.333333 0.500000
vt 0.457846 0.370000
vt 0.250000 0.490000
vt 0.042154 0.370000
vt 0.042154 0.130000
vt 0.250000 0.010000
vt 0.457846 0.130000
vt 0.166667 1.000000
vt 0.166667 0.500000
vt -0.000000 1.000000
vt -0.000000 0.500000
vt 0.750000 0.490000
vt 0.957846 0.370000
vt 0.957846 0.130000
vt 0.750000 0.010000
vt 0.542154 0.130000
vt 0.542154 0.370000
s 0
usemtl Rivets
f 221/271/111 222/272/111 224/273/111 223/274/111
f 223/274/112 224/273/112 226/275/112 225/276/112
f 225/276/113 226/275/113 228/277/113 227/278/113
f 227/278/114 228/277/114 230/279/114 229/280/114
f 224/281/115 222/282/115 232/283/115 230/284/115 228/285/115 226/286/115
f 229/280/116 230/279/116 232/287/116 231/288/116
f 231/288/117 232/287/117 222/289/117 221/290/117
f 221/291/118 223/292/118 225/293/118 227/294/118 229/295/118 231/296/118
o Cylinder.008
v 0.539931 -0.108131 -0.148454
v 0.547203 -0.108131 -0.148454
v 0.539931 -0.124888 -0.177478
v 0.547203 -0.124888 -0.177478
v 0.539931 -0.158403 -0.177478
v 0.547203 -0.158403 -0.177478
v 0.539931 -0.175161 -0.148454
v 0.547203 -0.175161 -0.148454
v 0.539931 -0.158403 -0.119429
v 0.547203 -0.158403 -0.119429
v 0.539931 -0.124888 -0.119429
v 0.547203 -0.124888 -0.119429
vn -0.0000 0.8660 -0.5000
vn -0.0000 -0.0000 -1.0000
vn -0.0000 -0.8660 -0.5000
vn -0.0000 -0.8660 0.5000
vn 1.0000 -0.0000 -0.0000
vn -0.0000 -0.0000 1.0000
vn -0.0000 0.8660 0.5000
vn -1.0000 -0.0000 -0.0000
vt 1.000000 0.500000
vt 1.000000 1.000000
vt 0.833333 1.000000
vt 0.833333 0.500000
vt 0.666667 1.000000
vt 0.666667 0.500000
vt 0.500000 1.000000
vt 0.500000 0.500000
vt 0.333333 1.000000
vt 0.333333 0.500000
vt 0.457846 0.370000
vt 0.250000 0.490000
vt 0.042154 0.370000
vt 0.042154 0.130000
vt 0.250000 0.010000
vt 0.457846 0.130000
vt 0.166667 1.000000
vt 0.166667 0.500000
vt -0.000000 1.000000
vt -0.000000 0.500000
vt 0.750000 0.490000
vt 0.957846 0.370000
vt 0.957846 0.130000
vt 0.750000 0.010000
vt 0.542154 0.130000
vt 0.542154 0.370000
s 0
usemtl Rivets
f 233/297/119 234/298/119 236/299/119 235/300/119
f 235/300/120 236/299/120 238/301/120 237/302/120
f 237/302/121 238/301/121 240/303/121 239/304/121
f 239/304/122 240/303/122 242/305/122 241/306/122
f 236/307/123 234/308/123 244/309/123 242/310/123 240/311/123 238/312/123
f 241/306/124 242/305/124 244/313/124 243/314/124
f 243/314/125 244/313/125 234/315/125 233/316/125
f 233/317/126 235/318/126 237/319/126 239/320/126 241/321/126 243/322/126
o Cylinder.009
v 0.539931 0.181051 0.151546
v 0.547203 0.181051 0.151546
v 0.539931 0.164293 0.122522
v 0.547203 0.164293 0.122522
v 0.539931 0.130779 0.122522
v 0.547203 0.130779 0.122522
v 0.539931 0.114021 0.151546
v 0.547203 0.114021 0.151546
v 0.539931 0.130779 0.180571
v 0.547203 0.130779 0.180571
v 0.539931 0.164293 0.180571
v 0.547203 0.164293 0.180571
vn -0.0000 0.8660 -0.5000
vn -0.0000 -0.0000 -1.0000
vn -0.0000 -0.8660 -0.5000
vn -0.0000 -0.8660 0.5000
vn 1.0000 -0.0000 -0.0000
vn -0.0000 -0.0000 1.0000
vn -0.0000 0.8660 0.5000
vn -1.0000 -0.0000 -0.0000
vt 1.000000 0.500000
vt 1.000000 1.000000
vt 0.833333 1.000000
vt 0.833333 0.500000
vt 0.666667 1.000000
vt 0.666667 0.500000
vt 0.500000 1.000000
vt 0.500000 0.500000
vt 0.333333 1.000000
vt 0.333333 0.500000
vt 0.457846 0.370000
vt 0.250000 0.490000
vt 0.042154 0.370000
vt 0.042154 0.130000
vt 0.250000 0.010000
vt 0.457846 0.130000
vt 0.166667 1.000000
vt 0.166667 0.500000
vt -0.000000 1.000000
vt -0.000000 0.500000
vt 0.750000 0.490000
vt 0.957846 0.370000
vt 0.957846 0.130000
vt 0.750000 0.010000
vt 0.542154 0.130000
vt 0.542154 0.370000
s 0
usemtl Rivets
f 245/323/127 246/324/127 248/325/127 247/326/127
f 247/326/128 248/325/128 250/327/128 249/328/128
f 249/328/129 250/327/129 252/329/129 251/330/129
f 251/330/130 252/329/130 254/331/130 253/332/130
f 248/333/131 246/334/131 256/335/131 254/336/131 252/337/131 250/338/131
f 253/332/132 254/331/132 256/339/132 255/340/132
f 255/340/133 256/339/133 246/341/133 245/342/133
f 245/343/134 247/344/134 249/345/134 251/346/134 253/347/134 255/348/134
o Cylinder.010
v 0.539931 -0.108131 0.151546
v 0.547203 -0.108131 0.151546
v 0.539931 -0.124888 0.122522
v 0.547203 -0.124888 0.122522
v 0.539931 -0.158403 0.122522
v 0.547203 -0.158403 0.122522
v 0.539931 -0.175161 0.151546
v 0.547203 -0.175161 0.151546
v 0.539931 -0.158403 0.180571
v 0.547203 -0.158403 0.180571
v 0.539931 -0.124888 0.180571
v 0.547203 -0.124888 0.180571
vn -0.0000 0.8660 -0.5000
vn -0.0000 -0.0000 -1.0000
vn -0.0000 -0.8660 -0.5000
vn -0.0000 -0.8660 0.5000
vn 1.0000 -0.0000 -0.0000
vn -0.0000 -0.0000 1.0000
vn -0.0000 0.8660 0.5000
vn -1.0000 -0.0000 -0.0000
vt 1.000000 0.500000
vt 1.000000 1.000000
vt 0.833333 1.000000
vt 0.833333 0.500000
vt 0.666667 1.000000
vt 0.666667 0.500000
vt 0.500000 1.000000
vt 0.500000 0.500000
vt 0.333333 1.000000
vt 0.333333 0.500000
vt 0.457846 0.370000
vt 0.250000 0.490000
vt 0.042154 0.370000
vt 0.042154 0.130000
vt 0.250000 0.010000
vt 0.457846 0.130000
vt 0.166667 1.000000
vt 0.166667 0.500000
vt -0.000000 1.000000
vt -0.000000 0.500000
vt 0.750000 0.490000
vt 0.957846 0.370000
vt 0.957846 0.130000
vt 0.750000 0.010000
vt 0.542154 0.130000
vt 0.542154 0.370000
s 0
usemtl Rivets
f 257/349/135 258/350/135 260/351/135 259/352/135
f 259/352/136 260/351/136 262/353/136 261/354/136
f 261/354/137 262/353/137 264/355/137 263/356/137
f 263/356/138 264/355/138 266/357/138 265/358/138
f 260/359/139 258/360/139 268/361/139 266/362/139 264/363/139 262/364/139
f 265/358/140 266/357/140 268/365/140 267/366/140
f 267/366/141 268/365/141 258/367/141 257/368/141
f 257/369/142 259/370/142 261/371/142 263/372/142 265/373/142 267/374/142
o Cylinder.011
v 0.539931 0.181051 -0.148454
v 0.547203 0.181051 -0.148454
v 0.539931 0.164293 -0.177478
v 0.547203 0.164293 -0.177478
v 0.539931 0.130779 -0.177478
v 0.547203 0.130779 -0.177478
v 0.539931 0.114021 -0.148454
v 0.547203 0.114021 -0.148454
v 0.539931 0.130779 -0.119429
v 0.547203 0.130779 -0.119429
v 0.539931 0.164293 -0.119429
v 0.547203 0.164293 -0.119429
vn -0.0000 0.8660 -0.5000
vn -0.0000 -0.0000 -1.0000
vn -0.0000 -0.8660 -0.5000
vn -0.0000 -0.8660 0.5000
vn 1.0000 -0.0000 -0.0000
vn -0.0000 -0.0000 1.0000
vn -0.0000 0.8660 0.5000
vn -1.0000 -0.0000 -0.0000
vt 1.000000 0.500000
vt 1.000000 1.000000
vt 0.833333 1.000000
vt 0.833333 0.500000
vt 0.666667 1.000000
vt 0.666667 0.500000
vt 0.500000 1.000000
vt 0.500000 0.500000
vt 0.333333 1.000000
vt 0.333333 0.500000
vt 0.457846 0.370000
vt 0.250000 0.490000
vt 0.042154 0.370000
vt 0.042154 0.130000
vt 0.250000 0.010000
vt 0.457846 0.130000
vt 0.166667 1.000000
vt 0.166667 0.500000
vt -0.000000 1.000000
vt -0.000000 0.500000
vt 0.750000 0.490000
vt 0.957846 0.370000
vt 0.957846 0.130000
vt 0.750000 0.010000
vt 0.542154 0.130000
vt 0.542154 0.370000
s 0
usemtl Rivets
f 269/375/143 270/376/143 272/377/143 271/378/143
f 271/378/144 272/377/144 274/379/144 273/380/144
f 273/380/145 274/379/145 276/381/145 275/382/145
f 275/382/146 276/381/146 278/383/146 277/384/146
f 272/385/147 270/386/147 280/387/147 278/388/147 276/389/147 274/390/147
f 277/384/148 278/383/148 280/391/148 279/392/148
f 279/392/149 280/391/149 270/393/149 269/394/149
f 269/395/150 271/396/150 273/397/150 275/398/150 277/399/150 279/400/150
o Cylinder.012
v -0.549040 -0.108131 -0.148454
v -0.541769 -0.108131 -0.148454
v -0.549040 -0.124888 -0.177478
v -0.541769 -0.124888 -0.177478
v -0.549040 -0.158403 -0.177478
v -0.541769 -0.158403 -0.177478
v -0.549040 -0.175161 -0.148454
v -0.541769 -0.175161 -0.148454
v -0.549040 -0.158403 -0.119429
v -0.541769 -0.158403 -0.119429
v -0.549040 -0.124888 -0.119429
v -0.541769 -0.124888 -0.119429
vn -0.0000 0.8660 -0.5000
vn -0.0000 -0.0000 -1.0000
vn -0.0000 -0.8660 -0.5000
vn -0.0000 -0.8660 0.5000
vn 1.0000 -0.0000 -0.0000
vn -0.0000 -0.0000 1.0000
vn -0.0000 0.8660 0.5000
vn -1.0000 -0.0000 -0.0000
vt 1.000000 0.500000
vt 1.000000 1.000000
vt 0.833333 1.000000
vt 0.833333 0.500000
vt 0.666667 1.000000
vt 0.666667 0.500000
vt 0.500000 1.000000
vt 0.500000 0.500000
vt 0.333333 1.000000
vt 0.333333 0.500000
vt 0.457846 0.370000
vt 0.250000 0.490000
vt 0.042154 0.370000
vt 0.042154 0.130000
vt 0.250000 0.010000
vt 0.457846 0.130000
vt 0.166667 1.000000
vt 0.166667 0.500000
vt -0.000000 1.000000
vt -0.000000 0.500000
vt 0.750000 0.490000
vt 0.957846 0.370000
vt 0.957846 0.130000
vt 0.750000 0.010000
vt 0.542154 0.130000
vt 0.542154 0.370000
s 0
usemtl Rivets
f 281/401/151 282/402/151 284/403/151 283/404/151
f 283/404/152 284/403/152 286/405/152 285/406/152
f 285/406/153 286/405/153 288/407/153 287/408/153
f 287/408/154 288/407/154 290/409/154 289/410/154
f 284/411/155 282/412/155 292/413/155 290/414/155 288/415/155 286/416/155
f 289/410/156 290/409/156 292/417/156 291/418/156
f 291/418/157 292/417/157 282/419/157 281/420/157
f 281/421/158 283/422/158 285/423/158 287/424/158 289/425/158 291/426/158
o Cylinder.013
v -0.549040 0.181051 0.151546
v -0.541769 0.181051 0.151546
v -0.549040 0.164293 0.122522
v -0.541769 0.164293 0.122522
v -0.549040 0.130779 0.122522
v -0.541769 0.130779 0.122522
v -0.549040 0.114021 0.151546
v -0.541769 0.114021 0.151546
v -0.549040 0.130779 0.180571
v -0.541769 0.130779 0.180571
v -0.549040 0.164293 0.180571
v -0.541769 0.164293 0.180571
vn -0.0000 0.8660 -0.5000
vn -0.0000 -0.0000 -1.0000
vn -0.0000 -0.8660 -0.5000
vn -0.0000 -0.8660 0.5000
vn 1.0000 -0.0000 -0.0000
vn -0.0000 -0.0000 1.0000
vn -0.0000 0.8660 0.5000
vn -1.0000 -0.0000 -0.0000
vt 1.000000 0.500000
vt 1.000000 1.000000
vt 0.833333 1.000000
vt 0.833333 0.500000
vt 0.666667 1.000000
vt 0.666667 0.500000
vt 0.500000 1.000000
vt 0.500000 0.500000
vt 0.333333 1.000000
vt 0.333333 0.500000
vt 0.457846 0.370000
vt 0.250000 0.490000
vt 0.042154 0.370000
vt 0.042154 0.130000
vt 0.250000 0.010000
vt 0.457846 0.130000
vt 0.166667 1.000000
vt 0.166667 0.500000
vt -0.000000 1.000000
vt -0.000000 0.500000
vt 0.750000 0.490000
vt 0.957846 0.370000
vt 0.957846 0.130000
vt 0.750000 0.010000
vt 0.542154 0.130000
vt 0.542154 0.370000
s 0
usemtl Rivets
f 293/427/159 294/428/159 296/429/159 295/430/159
f 295/430/160 296/429/160 298/431/160 297/432/160
f 297/432/161 298/431/161 300/433/161 299/434/161
f 299/434/162 300/433/162 302/435/162 301/436/162
f 296/437/163 294/438/163 304/439/163 302/440/163 300/441/163 298/442/163
f 301/436/164 302/435/164 304/443/164 303/444/164
f 303/444/165 304/443/165 294/445/165 293/446/165
f 293/447/166 295/448/166 297/449/166 299/450/166 301/451/166 303/452/166
o Cylinder.014
v -0.549040 -0.108131 0.151546
v -0.541769 -0.108131 0.151546
v -0.549040 -0.124888 0.122522
v -0.541769 -0.124888 0.122522
v -0.549040 -0.158403 0.122522
v -0.541769 -0.158403 0.122522
v -0.549040 -0.175161 0.151546
v -0.541769 -0.175161 0.151546
v -0.549040 -0.158403 0.180571
v -0.541769 -0.158403 0.180571
v -0.549040 -0.124888 0.180571
v -0.541769 -0.124888 0.180571
vn -0.0000 0.8660 -0.5000
vn -0.0000 -0.0000 -1.0000
vn -0.0000 -0.8660 -0.5000
vn -0.0000 -0.8660 0.5000
vn 1.0000 -0.0000 -0.0000
vn -0.0000 -0.0000 1.0000
vn -0.0000 0.8660 0.5000
vn -1.0000 -0.0000 -0.0000
vt 1.000000 0.500000
vt 1.000000 1.000000
vt 0.833333 1.000000
vt 0.833333 0.500000
vt 0.666667 1.000000
vt 0.666667 0.500000
vt 0.500000 1.000000
vt 0.500000 0.500000
vt 0.333333 1.000000
vt 0.333333 0.500000
vt 0.457846 0.370000
vt 0.250000 0.490000
vt 0.042154 0.370000
vt 0.042154 0.130000
vt 0.250000 0.010000
vt 0.457846 0.130000
vt 0.166667 1.000000
vt 0.166667 0.500000
vt -0.000000 1.000000
vt -0.000000 0.500000
vt 0.750000 0.490000
vt 0.957846 0.370000
vt 0.957846 0.130000
vt 0.750000 0.010000
vt 0.542154 0.130000
vt 0.542154 0.370000
s 0
usemtl Rivets
f 305/453/167 306/454/167 308/455/167 307/456/167
f 307/456/168 308/455/168 310/457/168 309/458/168
f 309/458/169 310/457/169 312/459/169 311/460/169
f 311/460/170 312/459/170 314/461/170 313/462/170
f 308/463/171 306/464/171 316/465/171 314/466/171 312/467/171 310/468/171
f 313/462/172 314/461/172 316/469/172 315/470/172
f 315/470/173 316/469/173 306/471/173 305/472/173
f 305/473/174 307/474/174 309/475/174 311/476/174 313/477/174 315/478/174
o Cylinder.015
v -0.549040 0.181051 -0.148454
v -0.541769 0.181051 -0.148454
v -0.549040 0.164293 -0.177478
v -0.541769 0.164293 -0.177478
v -0.549040 0.130779 -0.177478
v -0.541769 0.130779 -0.177478
v -0.549040 0.114021 -0.148454
v -0.541769 0.114021 -0.148454
v -0.549040 0.130779 -0.119429
v -0.541769 0.130779 -0.119429
v -0.549040 0.164293 -0.119429
v -0.541769 0.164293 -0.119429
vn -0.0000 0.8660 -0.5000
vn -0.0000 -0.0000 -1.0000
vn -0.0000 -0.8660 -0.5000
vn -0.0000 -0.8660 0.5000
vn 1.0000 -0.0000 -0.0000
vn -0.0000 -0.0000 1.0000
vn -0.0000 0.8660 0.5000
vn -1.0000 -0.0000 -0.0000
vt 1.000000 0.500000
vt 1.000000 1.000000
vt 0.833333 1.000000
vt 0.833333 0.500000
vt 0.666667 1.000000
vt 0.666667 0.500000
vt 0.500000 1.000000
vt 0.500000 0.500000
vt 0.333333 1.000000
vt 0.333333 0.500000
vt 0.457846 0.370000
vt 0.250000 0.490000
vt 0.042154 0.370000
vt 0.042154 0.130000
vt 0.250000 0.010000
vt 0.457846 0.130000
vt 0.166667 1.000000
vt 0.166667 0.500000
vt -0.000000 1.000000
vt -0.000000 0.500000
vt 0.750000 0.490000
vt 0.957846 0.370000
vt 0.957846 0.130000
vt 0.750000 0.010000
vt 0.542154 0.130000
vt 0.542154 0.370000
s 0
usemtl Rivets
f 317/479/175 318/480/175 320/481/175 319/482/175
f 319/482/176 320/481/176 322/483/176 321/484/176
f 321/484/177 322/483/177 324/485/177 323/486/177
f 323/486/178 324/485/178 326/487/178 325/488/178
f 320/489/179 318/490/179 328/491/179 326/492/179 324/493/179 322/494/179
f 325/488/180 326/487/180 328/495/180 327/496/180
f 327/496/181 328/495/181 318/497/181 317/498/181
f 317/499/182 319/500/182 321/501/182 323/502/182 325/503/182 327/504/182
